<svg xmlns="http://www.w3.org/2000/svg" xmlns:xlink="http://www.w3.org/1999/xlink" width="188" height="188" viewBox="0 0 188 188">
  <defs>
    <clipPath id="clip-path">
      <circle id="Elipse_5012" data-name="Elipse 5012" cx="94" cy="94" r="94" transform="translate(182.001 5172)" fill="#fff"/>
    </clipPath>
    <radialGradient id="radial-gradient" cx="0.5" cy="0.5" r="0.768" gradientTransform="translate(0.011) scale(0.977 1)" gradientUnits="objectBoundingBox">
      <stop offset="0" stop-color="#fff"/>
      <stop offset="0.164" stop-color="#fafafa"/>
      <stop offset="0.351" stop-color="#ececec"/>
      <stop offset="0.55" stop-color="#d5d5d5"/>
      <stop offset="0.758" stop-color="#b5b5b5"/>
      <stop offset="0.97" stop-color="#8c8c8c"/>
      <stop offset="1" stop-color="#868686"/>
    </radialGradient>
  </defs>
  <g id="Enmascarar_grupo_102" data-name="Enmascarar grupo 102" transform="translate(-182.001 -5172)" clip-path="url(#clip-path)">
    <g id="svg7" transform="translate(187.93 5174.092)">
      <g id="Grupo_877978" data-name="Grupo 877978" transform="translate(-4.93 -1.907)">
        <g id="Grupo_877977" data-name="Grupo 877977">
          <rect id="Rectángulo_292803" data-name="Rectángulo 292803" width="192.002" height="187.63" fill="url(#radial-gradient)"/>
        </g>
      </g>
      <g id="Grupo_877981" data-name="Grupo 877981" transform="translate(33.406 33.826)">
        <circle id="Elipse_5013" data-name="Elipse 5013" cx="51.116" cy="51.116" r="51.116" transform="translate(0 102.096) rotate(-87.031)" fill="#ffde00"/>
        <path id="Trazado_602542" data-name="Trazado 602542" d="M86.1,130.784a44.219,44.219,0,1,1,31.259-12.951A43.883,43.883,0,0,1,86.1,130.784Zm0-84.467a40.266,40.266,0,1,0,40.266,40.266A40.312,40.312,0,0,0,86.1,46.317Z" transform="translate(-32.409 -32.883)" fill="#1d1d1b"/>
        <g id="Grupo_877980" data-name="Grupo 877980" transform="translate(41.35 27.009)">
          <g id="Grupo_877979" data-name="Grupo 877979">
            <path id="Trazado_602543" data-name="Trazado 602543" d="M83.851,72.458a6.344,6.344,0,0,0,4.587-1.9,6.523,6.523,0,0,0,0-9.2,6.48,6.48,0,0,0-4.587-1.831,6.147,6.147,0,0,0-4.548,1.9,6.249,6.249,0,0,0-1.9,4.587,6.147,6.147,0,0,0,1.9,4.548A6.225,6.225,0,0,0,83.851,72.458Z" transform="translate(-73.003 -59.527)" fill="#1d1d1b"/>
            <path id="Trazado_602544" data-name="Trazado 602544" d="M97.771,103.071H93.5s-2.074.029-2.152-1.9c-.2-2.542-.37-4.625-.39-5.229l-.243-6.2c-.019-.38-.039-.867-.039-1.48,0-1.363-.01-2.434-.039-3.2-.019-.282-.039-.6-.039-.954l.107-2.639v-6.2a62.805,62.805,0,0,1-16.253,5.5l-.954,4.4a13.217,13.217,0,0,0,2.542.243,8.225,8.225,0,0,0,3.175-.6l.146,8.842c0,2.162.058,4.908.117,7.664a1.665,1.665,0,0,1-1.743,1.753H73.095v9.485h6.359v.01a.088.088,0,0,0,.049-.01H97.771Z" transform="translate(-73.095 -59.192)" fill="#1d1d1b"/>
          </g>
        </g>
      </g>
    </g>
  </g>
</svg>
