<svg id="svg4" xmlns="http://www.w3.org/2000/svg" width="129" height="129" viewBox="0 0 129 129">
  <rect id="Rectángulo_292779" data-name="Rectángulo 292779" width="129" height="129" fill="#ef3c79"/>
  <path id="Trazado_602519" data-name="Trazado 602519" d="M24.75,104.062,63.359,130h64.5V70.73L98.97,45.63,87.2,66.079,41.72,46.875Z" transform="translate(1.141 -0.998)" fill="#b53365"/>
  <path id="Trazado_602520" data-name="Trazado 602520" d="M45.036,53.436c0,4.8-4.17,8.676-9.293,8.676-5.16,0-9.321-3.879-9.321-8.676s4.161-8.676,9.321-8.676C40.866,44.76,45.036,48.648,45.036,53.436Zm40.753,0c0,4.8,4.17,8.676,9.293,8.676,5.16,0,9.33-3.879,9.33-8.676s-4.17-8.676-9.33-8.676C89.959,44.76,85.789,48.648,85.789,53.436ZM60.27,83.26a5.756,5.756,0,0,1,1.844-4.8C54.238,77.065,51,73.476,48.2,70.242a19.674,19.674,0,0,0-4.4-4.17c-.055-.027-.109-.027-.154-.073a8.8,8.8,0,0,0-5.387-1.853H33.226c-4.66,0-8.476,3.543-8.476,7.885v31.95H46.725V79.772a29.473,29.473,0,0,0,14.708,6.187A5.73,5.73,0,0,1,60.27,83.26ZM97.617,64.146H92.566A8.772,8.772,0,0,0,87.188,66c-.055.036-.118.036-.164.073a19.487,19.487,0,0,0-4.406,4.17c-3.08,3.552-6.577,7.613-16.352,8.621a3.839,3.839,0,0,0-3.561,4.152,3.928,3.928,0,0,0,4.006,3.343c.145,0,.3-.009.454-.018,8.285-.863,13.409-3.607,16.934-6.514v24.165h21.957V72.032C106.075,67.689,102.259,64.146,97.617,64.146Z" transform="translate(1.141 -0.918)" fill="#fff"/>
</svg>
