<svg xmlns="http://www.w3.org/2000/svg" width="129" height="129" viewBox="0 0 129 129">
  <g id="svg3" transform="translate(1 1.75)">
    <rect id="Rectángulo_292778" data-name="Rectángulo 292778" width="129" height="129" transform="translate(-1 -1.75)" fill="#21cbae"/>
    <path id="Trazado_602509" data-name="Trazado 602509" d="M23.769,99.528l28.783,29.9h76.978l-.169-54.114-45-39.873S44.8,23.855,36.97,57.085l-.291,7.3L27,59.393l-3.237,8.35,4.306,5-4.053,28.474" transform="translate(-1.531 -2.178)" fill="#1d967e"/>
    <g id="Grupo_877940" data-name="Grupo 877940" transform="translate(17.585 28.594)">
      <g id="Grupo_877939" data-name="Grupo 877939" transform="translate(17.487)">
        <path id="Trazado_602510" data-name="Trazado 602510" d="M53.1,34.718A31.245,31.245,0,1,1,71.806,92.895c-.038,1.707,0,3.415-.019,5.122,1.032-.019,2.073-.019,3.105,0,0,3.725.038,7.449-.019,11.174H62.481V98.017c1.032,0,2.055,0,3.087-.019.038-1.707,0-3.415,0-5.1A31.257,31.257,0,0,1,53.1,34.718m13.153,3.124a24.094,24.094,0,1,0,23.3,11.952,24.044,24.044,0,0,0-23.3-11.952Z" transform="translate(-37.45 -30.593)" fill="#fff"/>
        <path id="Trazado_602511" data-name="Trazado 602511" d="M68.31,49.036a8.517,8.517,0,1,1,1.67,16.831,8.519,8.519,0,0,1-1.67-16.831Z" transform="translate(-38.944 -31.719)" fill="#fff"/>
        <path id="Trazado_602512" data-name="Trazado 602512" d="M55.579,72.957c3.087-.657,6.164-1.257,9.269-1.867,1.632,2.561,8.247,2.524,9.935,0,3.087.6,6.173,1.182,9.232,1.867-.019,1.745.056,3.49-.056,5.216a19.682,19.682,0,0,1-28.324,0c-.15-1.726,0-3.49-.056-5.216Z" transform="translate(-38.569 -33.096)" fill="#fff"/>
        <path id="Trazado_602513" data-name="Trazado 602513" d="M42.64,92.18a38.332,38.332,0,0,0,8.575,6.38c-.178,2.214-.507,4.4-.694,6.614-2.148-.019-4.325.056-6.5-.038-.432-4.325-.957-8.631-1.379-12.956Z" transform="translate(-37.77 -34.4)" fill="#fff"/>
        <path id="Trazado_602514" data-name="Trazado 602514" d="M89.7,98.572a41.751,41.751,0,0,0,8.575-6.342c-.432,4.325-.966,8.631-1.379,12.938-2.177.038-4.325.056-6.5,0-.206-2.214-.507-4.409-.694-6.6Z" transform="translate(-40.68 -34.403)" fill="#fff"/>
      </g>
      <path id="Trazado_602515" data-name="Trazado 602515" d="M28.056,71.063a5.027,5.027,0,0,0,4.25-3.969,4.972,4.972,0,0,0-1.36-4.522,5.008,5.008,0,1,0-2.89,8.491Z" transform="translate(-19.031 -32.478)" fill="#fff"/>
      <path id="Trazado_602516" data-name="Trazado 602516" d="M35.519,75.25c-1.811-.338-3.6-.732-5.413-1.07-1,1.473-4.869,1.5-5.845,0q-2.73.535-5.441,1.088c-.009,4.081,0,8.172-.009,12.253.647.525,1.323,1.023,1.98,1.529l.9-8.781s.5,8.087,1.013,14.776c.263,2.336.507,4.672.76,7.008a8.5,8.5,0,0,1,.244,1.689,17.694,17.694,0,0,0,6.952.009c.441-3.471.8-6.961,1.173-10.451.469-6.267.882-13.031.882-13.031l.891,8.744c.638-.5,1.276-.994,1.923-1.492C35.528,83.43,35.538,79.34,35.519,75.25Z" transform="translate(-18.81 -33.287)" fill="#fff"/>
      <path id="Trazado_602517" data-name="Trazado 602517" d="M114.076,71.253a5.027,5.027,0,0,0,4.25-3.969,4.972,4.972,0,0,0-1.36-4.522,5.009,5.009,0,0,0-7.271,6.886A4.983,4.983,0,0,0,114.076,71.253Z" transform="translate(-24.348 -32.49)" fill="#fff"/>
      <path id="Trazado_602518" data-name="Trazado 602518" d="M121.539,75.44c-1.811-.338-3.6-.732-5.413-1.07-1,1.473-4.869,1.5-5.845,0q-2.73.535-5.441,1.088c-.009,4.081,0,8.172-.009,12.253.647.525,1.323,1.023,1.98,1.529l.9-8.781s.5,8.087,1.013,14.776c.263,2.336.507,4.672.76,7.008a8.5,8.5,0,0,1,.244,1.689,17.694,17.694,0,0,0,6.952.009c.441-3.471.8-6.961,1.173-10.451.469-6.267.882-13.031.882-13.031l.891,8.744c.638-.5,1.276-.994,1.923-1.492C121.548,83.63,121.558,79.53,121.539,75.44Z" transform="translate(-24.128 -33.299)" fill="#fff"/>
    </g>
  </g>
</svg>
