<svg xmlns="http://www.w3.org/2000/svg" width="140.327" height="29.815" viewBox="0 0 140.327 29.815">
  <g id="Grupo_877683" data-name="Grupo 877683" transform="translate(-123.963 91.226) rotate(-90)">
    <path id="Trazado_602306" data-name="Trazado 602306" d="M91.226,130.027l-6.064-6.064-8.843,8.843-8.843-8.843-6.064,6.064,8.843,8.843-8.843,8.843,6.064,6.064,8.843-8.843,8.843,8.843,6.064-6.064-8.843-8.843Z" fill="#fdfdfd"/>
    <path id="Trazado_602307" data-name="Trazado 602307" d="M91.226,185.284l-6.064-6.064-8.843,8.843-8.843-8.843-6.064,6.064,8.843,8.843-8.843,8.843,6.064,6.064,8.843-8.843,8.843,8.843,6.064-6.064-8.843-8.843Z" fill="#fdfdfd"/>
    <path id="Trazado_602308" data-name="Trazado 602308" d="M91.226,240.54l-6.064-6.064-8.843,8.843-8.843-8.843-6.064,6.064,8.843,8.843-8.843,8.843,6.064,6.064,8.843-8.843,8.843,8.843,6.064-6.064-8.843-8.843Z" fill="#fdfdfd"/>
  </g>
</svg>
