<svg id="Grupo_877986" data-name="Grupo 877986" xmlns="http://www.w3.org/2000/svg" xmlns:xlink="http://www.w3.org/1999/xlink" width="129.668" height="101.973" viewBox="0 0 129.668 101.973">
  <defs>
    <linearGradient id="linear-gradient" x1="-39.578" y1="-18.477" x2="-40.844" y2="-1.528" gradientUnits="objectBoundingBox">
      <stop offset="0" stop-color="#f2f9ff"/>
      <stop offset="0.064" stop-color="#dbe9f5"/>
      <stop offset="0.32" stop-color="#b6d1e7"/>
      <stop offset="0.47" stop-color="#a6c7e2"/>
      <stop offset="0.618" stop-color="#88adcf"/>
      <stop offset="0.67" stop-color="#8aafd0"/>
      <stop offset="0.707" stop-color="#94b8d7"/>
      <stop offset="0.733" stop-color="#a0c4df"/>
      <stop offset="0.982" stop-color="#a6c7e2"/>
    </linearGradient>
    <linearGradient id="linear-gradient-2" x1="-9.989" y1="-0.922" x2="-10.11" y2="0.404" gradientUnits="objectBoundingBox">
      <stop offset="0" stop-color="#f2f9ff"/>
      <stop offset="0.064" stop-color="#dbe9f5"/>
      <stop offset="0.268" stop-color="#b6d1e7"/>
      <stop offset="0.388" stop-color="#a6c7e2"/>
      <stop offset="0.612" stop-color="#949fc3"/>
      <stop offset="0.772" stop-color="#7f6b55"/>
      <stop offset="0.786" stop-color="#7f6e5a"/>
      <stop offset="0.805" stop-color="#80776b"/>
      <stop offset="0.826" stop-color="#828687"/>
      <stop offset="0.849" stop-color="#859bad"/>
      <stop offset="0.866" stop-color="#88adcf"/>
      <stop offset="0.914" stop-color="#8aafd0"/>
      <stop offset="0.948" stop-color="#94b7d6"/>
      <stop offset="0.978" stop-color="#a3c4e0"/>
      <stop offset="0.982" stop-color="#a6c7e2"/>
    </linearGradient>
    <linearGradient id="linear-gradient-3" x1="0.236" y1="-0.018" x2="0.413" y2="0.923" gradientUnits="objectBoundingBox">
      <stop offset="0" stop-color="#f2f9ff"/>
      <stop offset="0.795" stop-color="#c0d6f2"/>
      <stop offset="0.999" stop-color="#b3cdec"/>
    </linearGradient>
    <linearGradient id="linear-gradient-4" x1="-1.466" y1="-0.427" x2="-1.001" y2="0.465" gradientUnits="objectBoundingBox">
      <stop offset="0.076" stop-color="#fff"/>
      <stop offset="1" stop-color="#fff" stop-opacity="0"/>
    </linearGradient>
    <linearGradient id="linear-gradient-5" x1="-87.646" y1="-5.639" x2="-87.93" y2="-4.464" gradientUnits="objectBoundingBox">
      <stop offset="0" stop-color="#53cc5b"/>
      <stop offset="0.1" stop-color="#46bf55"/>
      <stop offset="0.705" stop-color="#073"/>
      <stop offset="1" stop-color="#073"/>
    </linearGradient>
    <linearGradient id="linear-gradient-6" x1="-87.57" y1="-5.002" x2="-87.759" y2="-3.827" xlink:href="#linear-gradient-5"/>
    <linearGradient id="linear-gradient-7" x1="-87.453" y1="-4.301" x2="-87.729" y2="-3.171" xlink:href="#linear-gradient-5"/>
    <linearGradient id="linear-gradient-8" x1="-3.153" y1="-0.341" x2="-3.314" y2="-2.632" gradientUnits="objectBoundingBox">
      <stop offset="0.301" stop-color="#42c352"/>
      <stop offset="0.477" stop-color="#57ce5e"/>
      <stop offset="0.995" stop-color="#95ee81"/>
    </linearGradient>
    <linearGradient id="linear-gradient-9" x1="-15.49" y1="-3.58" x2="-14.889" y2="-2.383" xlink:href="#linear-gradient-4"/>
    <linearGradient id="linear-gradient-10" x1="-15.53" y1="-3.806" x2="-14.93" y2="-2.61" xlink:href="#linear-gradient-4"/>
    <linearGradient id="linear-gradient-11" x1="-15.57" y1="-4.03" x2="-14.97" y2="-2.834" xlink:href="#linear-gradient-4"/>
  </defs>
  <path id="Trazado_490" data-name="Trazado 490" d="M417.4,342.431l-18.8,5.31c-.061.017-.119.025-.179.038a2.93,2.93,0,0,1-.588.076,2.443,2.443,0,0,1-1.231-.308l4.061,2.276a2.448,2.448,0,0,0,1.231.308,2.93,2.93,0,0,0,.588-.076c.022,0,.041,0,.063-.008l.116-.03,18.8-5.31Z" transform="translate(-395.237 -255.076)" fill="url(#linear-gradient)"/>
  <path id="Trazado_491" data-name="Trazado 491" d="M537.953,262.391c.066-.12.128-.243.193-.364.093-.17.183-.342.274-.513q.421-.8.815-1.609c.066-.137.135-.272.2-.409.028-.059.059-.117.086-.176q.44-.939.842-1.9c.01-.025.023-.05.034-.076q.419-1,.8-2.032c.02-.055.038-.111.057-.166.064-.176.122-.355.183-.532q.287-.816.548-1.647c.076-.241.148-.485.221-.728q.232-.784.439-1.58c.06-.229.122-.456.179-.687.185-.749.358-1.5.51-2.268.174-.876.314-1.745.439-2.609.016-.107.039-.215.054-.321.023-.166.039-.331.06-.5.028-.22.055-.44.08-.66.016-.139.036-.28.051-.418.017-.161.024-.32.039-.481q.057-.605.1-1.206c.018-.27.035-.539.049-.808.02-.4.034-.8.043-1.2.006-.258.014-.516.016-.773,0-.424,0-.844-.013-1.264-.005-.225-.005-.451-.014-.675-.019-.53-.051-1.057-.09-1.581-.007-.1-.009-.2-.017-.3,0-.01,0-.02,0-.03-.052-.641-.12-1.277-.2-1.908-.024-.187-.055-.371-.081-.557-.062-.444-.129-.887-.2-1.326-.013-.077-.022-.155-.036-.232s-.037-.156-.052-.236c-.178-.96-.385-1.909-.628-2.842-.009-.036-.015-.075-.025-.111-.022-.082-.051-.161-.073-.243q-.322-1.2-.712-2.361c-.017-.051-.03-.1-.047-.154-.006-.019-.014-.037-.021-.055-.259-.758-.546-1.5-.848-2.24-.033-.082-.06-.167-.094-.249s-.075-.158-.109-.239c-.3-.707-.615-1.407-.955-2.1-.008-.015-.014-.032-.021-.047-.027-.054-.058-.106-.085-.16q-.466-.928-.98-1.831c-.05-.088-.093-.18-.144-.268-.038-.066-.082-.129-.12-.2-.38-.651-.774-1.294-1.189-1.924-.018-.027-.033-.055-.05-.081-.046-.07-.1-.136-.146-.206q-.573-.855-1.192-1.685c-.061-.081-.114-.167-.176-.248-.035-.046-.074-.088-.108-.134q-.719-.945-1.494-1.853c-.041-.048-.078-.1-.119-.148-.06-.07-.128-.135-.188-.205-.566-.65-1.147-1.291-1.755-1.912l-.012-.013c-.013-.013-.028-.025-.04-.039-.651-.663-1.329-1.306-2.026-1.933-.055-.05-.105-.1-.161-.154-.04-.036-.082-.07-.123-.106-.19-.168-.384-.332-.577-.5-.238-.2-.475-.409-.718-.61-.2-.165-.4-.325-.607-.487-.184-.146-.364-.3-.55-.441-.057-.044-.117-.085-.174-.129-.274-.211-.554-.416-.834-.621-.209-.153-.415-.308-.627-.459-.3-.211-.6-.416-.9-.621-.172-.117-.339-.238-.513-.353l-.094-.06c-.341-.224-.689-.441-1.037-.658-.175-.109-.347-.222-.525-.33q-.771-.468-1.564-.914l-.045-.027-4.061-2.275q.817.458,1.61.94c.173.106.341.216.512.323.352.219.7.438,1.048.664.2.135.405.275.607.413.3.206.607.41.9.621.212.15.418.306.627.459.28.206.56.411.834.621.244.187.482.378.721.569.2.162.409.324.61.49.241.2.476.4.711.6.2.167.393.333.585.5.1.085.186.172.28.256.7.629,1.378,1.274,2.03,1.938l.049.048c.608.621,1.189,1.261,1.756,1.912.1.118.206.234.307.353q.774.908,1.494,1.853c.1.127.189.255.284.382q.617.83,1.192,1.685c.064.1.132.191.2.287.416.631.81,1.274,1.19,1.925.089.153.176.308.264.462.341.6.67,1.212.98,1.832.035.07.073.138.107.207.34.687.655,1.388.955,2.1q.1.243.2.488c.3.737.589,1.483.848,2.24.024.069.044.14.068.209q.391,1.165.712,2.362c.032.118.067.234.1.353.243.934.449,1.883.628,2.842.029.157.061.312.088.47.076.438.141.879.2,1.321.026.187.057.373.082.561.08.631.148,1.267.2,1.908.008.107.012.215.019.323.039.526.071,1.054.091,1.587.008.224.009.45.014.675.009.42.016.84.013,1.264,0,.257-.01.515-.016.773-.009.4-.023.8-.043,1.2-.013.269-.03.538-.049.808-.027.4-.061.8-.1,1.206-.028.3-.056.6-.09.9-.025.219-.052.439-.08.66-.035.271-.075.545-.114.817-.125.865-.265,1.733-.439,2.61-.152.765-.325,1.52-.511,2.269-.056.23-.119.458-.179.687q-.208.8-.439,1.58c-.072.244-.145.487-.22.729q-.26.83-.548,1.647c-.062.177-.12.356-.183.532-.27.741-.553,1.474-.854,2.2-.011.025-.023.05-.034.076q-.441,1.051-.928,2.077c-.065.138-.134.272-.2.409q-.394.812-.815,1.608c-.091.172-.181.343-.273.513-.166.306-.343.6-.515.906q-.473.83-.975,1.643-.27.436-.549.866c-.3.469-.617.932-.936,1.39-.2.282-.39.565-.592.843-.317.438-.645.867-.975,1.295-.2.264-.4.532-.613.792-.343.428-.7.845-1.055,1.262-.2.235-.4.475-.6.707-.464.525-.942,1.037-1.426,1.544-.11.116-.215.237-.327.353q-.907.933-1.859,1.826c-.168.158-.344.308-.514.464-.483.443-.969.881-1.468,1.308-.23.2-.468.386-.7.58-.48.4-.964.79-1.458,1.174-.261.2-.526.4-.79.6q-.8.6-1.623,1.174c-.251.175-.5.352-.754.524-.84.569-1.694,1.123-2.566,1.653-.056.034-.115.066-.172.1-.909.548-1.839,1.068-2.78,1.571-.327.175-.654.351-.985.521-.277.142-.556.283-.836.422q-.673.332-1.357.649c-.271.127-.542.255-.816.378-.382.172-.77.335-1.157.5-.423.18-.844.361-1.272.533-.381.153-.766.3-1.151.445-.43.164-.859.328-1.294.484-.3.108-.607.209-.911.313q-1.125.385-2.269.731c-.289.088-.577.177-.868.261-1.013.293-2.034.57-3.067.817-.048.012-.1.021-.145.032-1.086.258-2.185.483-3.291.691q-.433.081-.867.158c-1.154.2-2.314.385-3.485.529l-.075.008c-1.149.141-2.307.245-3.47.33q-.448.033-.9.06c-1.191.073-2.387.127-3.59.14q-3.512.04-7.071-.265a62.85,62.85,0,0,1-25.367-7.5l4.061,2.276a62.84,62.84,0,0,0,25.367,7.5q3.558.307,7.071.265c1.2-.013,2.4-.067,3.589-.14.3-.018.6-.038.9-.06,1.163-.086,2.321-.189,3.47-.33l.075-.008c1.171-.145,2.331-.328,3.485-.53q.435-.075.867-.157c1.107-.208,2.207-.433,3.295-.691.038-.009.076-.015.114-.024l.027-.007c1.033-.248,2.054-.525,3.069-.818.29-.084.577-.173.866-.261q1.145-.347,2.27-.732c.178-.061.362-.112.54-.174.125-.044.248-.094.373-.139.433-.155.862-.319,1.291-.482.385-.146.771-.292,1.152-.445.428-.172.849-.353,1.272-.533.276-.118.556-.227.83-.348.11-.049.218-.1.327-.152.274-.123.544-.251.816-.378.455-.212.908-.428,1.357-.65.28-.138.557-.279.835-.421.2-.1.4-.2.6-.3.13-.069.254-.147.384-.217.941-.5,1.87-1.024,2.779-1.571.045-.028.093-.051.139-.078l.033-.022c.873-.529,1.726-1.084,2.567-1.653.088-.06.181-.113.269-.174.165-.113.32-.235.484-.35q.823-.575,1.625-1.175c.147-.111.3-.213.449-.325.116-.088.225-.184.34-.274.494-.383.978-.776,1.458-1.174.171-.142.35-.275.52-.419.062-.052.12-.109.182-.162.5-.427.986-.866,1.47-1.31.148-.135.3-.263.449-.4.022-.02.042-.042.064-.062q.952-.893,1.859-1.826l.024-.024c.1-.107.2-.22.3-.329.484-.507.963-1.019,1.426-1.544.032-.036.066-.07.1-.106.172-.2.332-.4.5-.6.356-.418.712-.835,1.055-1.263.052-.065.109-.128.161-.193.156-.2.3-.4.451-.6.33-.428.658-.856.975-1.294.074-.1.155-.2.228-.3.126-.176.24-.362.364-.54q.478-.688.936-1.39c.1-.148.2-.29.3-.439s.166-.286.253-.427q.5-.811.975-1.643C537.735,262.751,537.851,262.576,537.953,262.391Z" transform="translate(-414.593 -190.633)" fill="url(#linear-gradient-2)"/>
  <path id="Trazado_492" data-name="Trazado 492" d="M462.788,184.343q3.6-.039,7.243.265c32.506,2.733,54.681,25.431,48.758,54.525-5.487,26.919-32.033,44.574-61.718,44.9q-3.6.039-7.245-.265c-13.042-1.1-24.418-5.417-32.987-12.071L397.575,277a3.118,3.118,0,0,1-.785.114c-2.15.023-3.43-2.425-2.134-4.675l9.418-16.3a41.945,41.945,0,0,1-3-26.9C406.564,202.321,433.109,184.668,462.788,184.343Z" transform="translate(-394.136 -184.339)" fill="url(#linear-gradient-3)"/>
  <g id="Grupo_174" data-name="Grupo 174" transform="translate(37.53 40.393)">
    <path id="Trazado_493" data-name="Trazado 493" d="M511.387,265.246c3.557.368,5.775,3.855,4.938,7.8-.784,3.723-4.015,6.524-7.372,6.506q-.29,0-.581-.032c-3.566-.36-5.775-3.855-4.939-7.792.785-3.734,4.023-6.531,7.384-6.513Q511.1,265.218,511.387,265.246ZM490.046,263.1c-3.356-.018-6.586,2.776-7.37,6.506-.837,3.937,1.373,7.431,4.939,7.792q.29.03.581.032c3.356.018,6.588-2.783,7.372-6.506.836-3.938-1.381-7.432-4.939-7.792C490.434,263.109,490.24,263.1,490.046,263.1Zm-20.758-2.125c-3.356-.018-6.586,2.776-7.371,6.506-.836,3.938,1.374,7.432,4.939,7.792.194.02.388.03.582.031,3.356.018,6.586-2.776,7.371-6.506.836-3.938-1.381-7.432-4.939-7.792Q469.578,260.975,469.288,260.973Z" transform="translate(-460.376 -259.021)" fill="#eaf2fb" opacity="0"/>
    <path id="Trazado_494" data-name="Trazado 494" d="M511.33,265.164c3.557.369,5.775,3.855,4.937,7.8-.783,3.723-4.015,6.523-7.372,6.506q-.29,0-.581-.031c-3.566-.36-5.775-3.855-4.939-7.792.786-3.735,4.023-6.531,7.384-6.513Q511.045,265.136,511.33,265.164Zm-21.342-2.148c-3.356-.018-6.586,2.776-7.371,6.506-.836,3.937,1.373,7.432,4.939,7.792q.291.03.581.032c3.357.018,6.588-2.783,7.372-6.506.837-3.937-1.381-7.431-4.939-7.792C490.377,263.027,490.182,263.017,489.989,263.016Zm-20.758-2.125c-3.356-.018-6.586,2.776-7.371,6.506-.837,3.937,1.373,7.432,4.939,7.792.194.02.388.03.582.031,3.356.018,6.585-2.776,7.37-6.506.837-3.937-1.381-7.432-4.939-7.792A5.71,5.71,0,0,0,469.23,260.891Z" transform="translate(-460.35 -258.984)" fill="#e8f0f9" opacity="0.023" style="mix-blend-mode: multiply;isolation: isolate"/>
    <path id="Trazado_495" data-name="Trazado 495" d="M511.273,265.082c3.557.368,5.775,3.855,4.938,7.8-.784,3.723-4.016,6.523-7.372,6.506q-.29,0-.581-.031c-3.566-.36-5.775-3.855-4.939-7.792.785-3.735,4.023-6.531,7.384-6.513Q510.987,265.054,511.273,265.082Zm-21.342-2.148c-3.356-.018-6.586,2.776-7.37,6.506-.837,3.937,1.373,7.432,4.939,7.792q.29.03.581.032c3.356.017,6.588-2.783,7.372-6.506.837-3.937-1.381-7.432-4.939-7.792C490.32,262.945,490.125,262.935,489.931,262.934Zm-20.758-2.125c-3.356-.018-6.586,2.776-7.37,6.506-.837,3.937,1.373,7.432,4.939,7.792.194.02.388.03.582.032,3.356.018,6.586-2.776,7.371-6.506.836-3.937-1.381-7.431-4.939-7.792A5.73,5.73,0,0,0,469.173,260.809Z" transform="translate(-460.324 -258.948)" fill="#e6eef8" opacity="0.046" style="mix-blend-mode: multiply;isolation: isolate"/>
    <path id="Trazado_496" data-name="Trazado 496" d="M511.215,265c3.557.369,5.775,3.855,4.938,7.8-.784,3.723-4.016,6.523-7.372,6.506q-.29,0-.581-.031c-3.566-.36-5.775-3.855-4.939-7.792.786-3.735,4.023-6.531,7.385-6.513C510.835,264.971,511.025,264.98,511.215,265Zm-21.342-2.148c-3.356-.018-6.586,2.776-7.371,6.506-.836,3.937,1.373,7.432,4.939,7.792q.291.03.581.032c3.357.017,6.588-2.784,7.372-6.506.837-3.937-1.38-7.432-4.938-7.792C490.262,262.863,490.067,262.852,489.874,262.852Zm-20.758-2.126c-3.356-.017-6.586,2.776-7.371,6.506-.836,3.937,1.373,7.432,4.939,7.792.194.02.388.03.582.031,3.356.018,6.586-2.776,7.37-6.506.837-3.937-1.381-7.432-4.939-7.792Q469.406,260.728,469.116,260.726Z" transform="translate(-460.299 -258.911)" fill="#e4ecf6" opacity="0.069" style="mix-blend-mode: multiply;isolation: isolate"/>
    <path id="Trazado_497" data-name="Trazado 497" d="M511.158,264.917c3.557.369,5.775,3.855,4.938,7.8-.784,3.723-4.016,6.523-7.372,6.506-.194,0-.387-.011-.581-.032-3.566-.36-5.775-3.855-4.939-7.792.785-3.735,4.023-6.531,7.384-6.513Q510.872,264.888,511.158,264.917Zm-21.341-2.148c-3.356-.017-6.586,2.776-7.371,6.506-.837,3.937,1.373,7.431,4.939,7.792.193.02.387.03.581.031,3.356.018,6.588-2.783,7.372-6.506.837-3.937-1.381-7.432-4.939-7.792C490.2,262.781,490.01,262.77,489.816,262.769Zm-20.759-2.125c-3.356-.018-6.586,2.776-7.37,6.506-.837,3.937,1.373,7.432,4.939,7.792.194.02.388.03.582.032,3.356.017,6.586-2.776,7.371-6.506.836-3.937-1.381-7.432-4.939-7.792Q469.349,260.646,469.058,260.644Z" transform="translate(-460.273 -258.874)" fill="#e2ebf4" opacity="0.092" style="mix-blend-mode: multiply;isolation: isolate"/>
    <path id="Trazado_498" data-name="Trazado 498" d="M511.1,264.835c3.557.369,5.775,3.855,4.938,7.8-.784,3.723-4.015,6.524-7.372,6.506-.194,0-.387-.011-.581-.031-3.566-.36-5.775-3.855-4.939-7.792.785-3.735,4.023-6.531,7.384-6.514Q510.815,264.807,511.1,264.835Zm-21.342-2.148c-3.356-.017-6.586,2.776-7.371,6.506-.836,3.937,1.374,7.431,4.939,7.792.194.02.388.03.581.031,3.357.018,6.589-2.783,7.372-6.506.836-3.937-1.381-7.432-4.939-7.792Q490.049,262.689,489.759,262.687ZM469,260.562c-3.356-.018-6.586,2.776-7.371,6.506-.836,3.937,1.373,7.431,4.939,7.792a5.719,5.719,0,0,0,.582.031c3.356.018,6.586-2.776,7.371-6.506.836-3.937-1.381-7.432-4.939-7.792Q469.291,260.564,469,260.562Z" transform="translate(-460.247 -258.837)" fill="#e0e9f3" opacity="0.115" style="mix-blend-mode: multiply;isolation: isolate"/>
    <path id="Trazado_499" data-name="Trazado 499" d="M511.043,264.753c3.557.369,5.775,3.855,4.938,7.8-.784,3.722-4.015,6.523-7.372,6.506-.193,0-.387-.011-.581-.031-3.566-.36-5.775-3.855-4.939-7.792.786-3.735,4.023-6.531,7.384-6.514C510.663,264.724,510.853,264.734,511.043,264.753ZM489.7,262.605c-3.356-.018-6.586,2.776-7.371,6.506-.837,3.937,1.373,7.431,4.939,7.792.193.02.387.03.581.031,3.357.018,6.588-2.783,7.372-6.506.837-3.937-1.381-7.432-4.939-7.792C490.089,262.616,489.895,262.606,489.7,262.605Zm-20.758-2.125c-3.356-.018-6.586,2.776-7.371,6.506-.837,3.937,1.373,7.431,4.939,7.792a5.725,5.725,0,0,0,.582.031c3.356.018,6.586-2.776,7.371-6.506.837-3.937-1.381-7.432-4.939-7.792C469.331,260.492,469.137,260.481,468.943,260.48Z" transform="translate(-460.222 -258.801)" fill="#dee7f1" opacity="0.138" style="mix-blend-mode: multiply;isolation: isolate"/>
    <path id="Trazado_500" data-name="Trazado 500" d="M510.985,264.671c3.557.369,5.775,3.855,4.938,7.8-.784,3.723-4.015,6.524-7.372,6.506-.194,0-.387-.012-.581-.032-3.566-.36-5.775-3.855-4.939-7.792.785-3.734,4.023-6.531,7.384-6.513Q510.7,264.643,510.985,264.671Zm-21.342-2.148c-3.356-.018-6.586,2.776-7.37,6.506-.837,3.937,1.373,7.431,4.939,7.792.193.02.387.03.581.031,3.356.018,6.588-2.783,7.372-6.506.836-3.938-1.381-7.432-4.939-7.792C490.032,262.534,489.838,262.524,489.644,262.523ZM468.885,260.4c-3.356-.018-6.586,2.776-7.371,6.506-.836,3.938,1.374,7.432,4.939,7.792.194.02.388.03.582.032,3.356.018,6.586-2.776,7.371-6.506.836-3.937-1.381-7.432-4.939-7.792C469.273,260.409,469.079,260.4,468.885,260.4Z" transform="translate(-460.196 -258.764)" fill="#dce5ef" opacity="0.16" style="mix-blend-mode: multiply;isolation: isolate"/>
    <path id="Trazado_501" data-name="Trazado 501" d="M510.928,264.589c3.557.369,5.775,3.855,4.938,7.8-.784,3.723-4.016,6.524-7.372,6.506q-.29,0-.581-.032c-3.566-.36-5.775-3.855-4.939-7.792.786-3.735,4.023-6.531,7.384-6.513Q510.643,264.561,510.928,264.589Zm-21.341-2.148c-3.356-.018-6.586,2.776-7.371,6.506-.836,3.937,1.373,7.432,4.939,7.792q.291.03.581.031c3.357.018,6.588-2.783,7.372-6.506.837-3.937-1.381-7.431-4.939-7.792C489.975,262.452,489.78,262.442,489.587,262.441Zm-20.758-2.125c-3.356-.018-6.586,2.776-7.371,6.506-.837,3.937,1.373,7.432,4.939,7.792q.291.03.582.031c3.356.018,6.586-2.776,7.37-6.506.837-3.938-1.381-7.432-4.939-7.792A5.711,5.711,0,0,0,468.828,260.316Z" transform="translate(-460.17 -258.727)" fill="#dae3ed" opacity="0.183" style="mix-blend-mode: multiply;isolation: isolate"/>
    <path id="Trazado_502" data-name="Trazado 502" d="M510.871,264.507c3.557.368,5.775,3.855,4.938,7.8-.784,3.723-4.015,6.524-7.372,6.506q-.29,0-.581-.031c-3.566-.36-5.775-3.855-4.939-7.792.785-3.735,4.023-6.531,7.384-6.513Q510.585,264.478,510.871,264.507Zm-21.342-2.148c-3.356-.018-6.586,2.776-7.37,6.506-.837,3.937,1.373,7.432,4.939,7.792.193.02.387.03.581.032,3.356.017,6.588-2.783,7.372-6.506.837-3.937-1.381-7.432-4.939-7.792C489.917,262.37,489.723,262.36,489.529,262.359Zm-20.758-2.126c-3.356-.017-6.586,2.777-7.37,6.506-.837,3.937,1.373,7.432,4.939,7.792.194.02.388.03.582.032,3.356.018,6.586-2.776,7.371-6.506.836-3.937-1.381-7.431-4.939-7.792C469.159,260.245,468.965,260.234,468.771,260.233Z" transform="translate(-460.145 -258.69)" fill="#d8e1ec" opacity="0.206" style="mix-blend-mode: multiply;isolation: isolate"/>
    <path id="Trazado_503" data-name="Trazado 503" d="M510.814,264.424c3.557.369,5.775,3.855,4.938,7.8-.784,3.723-4.015,6.524-7.372,6.506q-.29,0-.581-.031c-3.566-.36-5.775-3.855-4.939-7.792.786-3.735,4.023-6.531,7.385-6.513Q510.528,264.4,510.814,264.424Zm-21.342-2.148c-3.356-.018-6.586,2.776-7.371,6.506-.836,3.937,1.373,7.432,4.939,7.792q.291.03.581.031c3.357.018,6.588-2.783,7.372-6.506.837-3.937-1.38-7.432-4.938-7.792C489.86,262.288,489.665,262.277,489.472,262.277Zm-20.758-2.126c-3.356-.017-6.586,2.776-7.371,6.506-.836,3.937,1.373,7.432,4.939,7.792q.291.03.582.031c3.356.018,6.586-2.776,7.37-6.506.837-3.937-1.381-7.432-4.939-7.792C469.1,260.163,468.907,260.152,468.714,260.151Z" transform="translate(-460.119 -258.653)" fill="#d6dfea" opacity="0.229" style="mix-blend-mode: multiply;isolation: isolate"/>
    <path id="Trazado_504" data-name="Trazado 504" d="M510.756,264.342c3.557.369,5.776,3.855,4.938,7.8-.784,3.723-4.015,6.524-7.372,6.506-.193,0-.387-.011-.581-.031-3.566-.36-5.775-3.855-4.939-7.792.785-3.735,4.023-6.531,7.384-6.513Q510.47,264.313,510.756,264.342Zm-21.341-2.148c-3.356-.017-6.586,2.776-7.371,6.506-.837,3.937,1.373,7.431,4.939,7.792.193.02.387.03.581.031,3.356.018,6.588-2.783,7.372-6.506.837-3.937-1.381-7.432-4.939-7.792C489.8,262.206,489.608,262.2,489.415,262.194Zm-20.759-2.125c-3.356-.018-6.586,2.776-7.37,6.506-.837,3.937,1.373,7.432,4.939,7.792.194.02.388.03.582.031,3.356.017,6.586-2.776,7.371-6.506.837-3.937-1.381-7.432-4.939-7.792Q468.947,260.071,468.656,260.069Z" transform="translate(-460.093 -258.617)" fill="#d4dee8" opacity="0.252" style="mix-blend-mode: multiply;isolation: isolate"/>
    <path id="Trazado_505" data-name="Trazado 505" d="M510.7,264.26c3.557.369,5.775,3.855,4.938,7.8-.784,3.723-4.016,6.524-7.372,6.506-.193,0-.387-.011-.58-.032-3.566-.36-5.775-3.855-4.939-7.792.786-3.735,4.023-6.531,7.384-6.514Q510.413,264.232,510.7,264.26Zm-21.342-2.148c-3.356-.018-6.586,2.776-7.371,6.506-.836,3.937,1.373,7.431,4.939,7.792.194.02.388.03.581.031,3.357.018,6.589-2.783,7.372-6.506.836-3.937-1.381-7.432-4.939-7.792Q489.647,262.114,489.357,262.112ZM468.6,259.987c-3.356-.018-6.586,2.776-7.371,6.506-.836,3.937,1.373,7.431,4.939,7.792a5.709,5.709,0,0,0,.582.031c3.356.018,6.586-2.775,7.371-6.506.836-3.937-1.381-7.432-4.939-7.792Q468.889,259.989,468.6,259.987Z" transform="translate(-460.067 -258.58)" fill="#d2dce7" opacity="0.275" style="mix-blend-mode: multiply;isolation: isolate"/>
    <path id="Trazado_506" data-name="Trazado 506" d="M510.641,264.178c3.557.369,5.775,3.855,4.938,7.8-.784,3.722-4.015,6.524-7.372,6.506-.193,0-.387-.011-.581-.032-3.566-.36-5.775-3.855-4.939-7.792.785-3.735,4.023-6.531,7.384-6.514Q510.356,264.15,510.641,264.178ZM489.3,262.03c-3.356-.018-6.586,2.776-7.371,6.506-.837,3.937,1.373,7.431,4.939,7.792.193.02.387.03.581.031,3.356.018,6.588-2.783,7.372-6.506.837-3.938-1.381-7.432-4.939-7.792C489.688,262.041,489.493,262.031,489.3,262.03ZM468.541,259.9c-3.356-.018-6.586,2.776-7.371,6.506-.837,3.937,1.373,7.431,4.939,7.792.194.02.388.03.582.031,3.356.018,6.586-2.776,7.371-6.506.836-3.937-1.381-7.432-4.939-7.792C468.929,259.917,468.735,259.906,468.541,259.9Z" transform="translate(-460.042 -258.543)" fill="#d0dae5" opacity="0.298" style="mix-blend-mode: multiply;isolation: isolate"/>
    <path id="Trazado_507" data-name="Trazado 507" d="M510.583,264.1c3.557.369,5.775,3.855,4.938,7.8-.784,3.723-4.016,6.524-7.372,6.506q-.291,0-.581-.031c-3.566-.36-5.775-3.855-4.939-7.792.785-3.735,4.023-6.531,7.384-6.513Q510.3,264.068,510.583,264.1Zm-21.342-2.148c-3.356-.018-6.586,2.776-7.371,6.506-.836,3.937,1.374,7.431,4.939,7.792.193.02.387.03.58.031,3.357.018,6.589-2.783,7.372-6.506.836-3.938-1.381-7.432-4.939-7.792C489.63,261.959,489.436,261.949,489.242,261.948Zm-20.758-2.125c-3.356-.018-6.586,2.776-7.371,6.506-.836,3.938,1.374,7.432,4.939,7.792.194.02.388.03.582.031,3.356.018,6.586-2.776,7.371-6.506.836-3.938-1.381-7.432-4.939-7.792C468.871,259.834,468.677,259.824,468.484,259.823Z" transform="translate(-460.016 -258.507)" fill="#ced8e3" opacity="0.321" style="mix-blend-mode: multiply;isolation: isolate"/>
    <path id="Trazado_508" data-name="Trazado 508" d="M510.526,264.014c3.557.368,5.775,3.855,4.938,7.8-.784,3.723-4.015,6.523-7.372,6.506q-.29,0-.581-.031c-3.566-.36-5.775-3.855-4.939-7.792.786-3.735,4.023-6.531,7.384-6.513Q510.241,263.986,510.526,264.014Zm-21.341-2.148c-3.356-.018-6.586,2.776-7.371,6.506-.836,3.937,1.373,7.432,4.939,7.792q.291.03.581.031c3.357.018,6.588-2.783,7.372-6.506.837-3.937-1.381-7.431-4.939-7.792C489.572,261.877,489.378,261.867,489.184,261.866Zm-20.758-2.125c-3.356-.018-6.586,2.776-7.371,6.506-.837,3.937,1.373,7.432,4.939,7.792.194.02.388.03.582.031,3.356.018,6.586-2.776,7.37-6.506.837-3.937-1.381-7.431-4.939-7.792A5.689,5.689,0,0,0,468.426,259.741Z" transform="translate(-459.99 -258.47)" fill="#ccd6e2" opacity="0.344" style="mix-blend-mode: multiply;isolation: isolate"/>
    <path id="Trazado_509" data-name="Trazado 509" d="M510.468,263.931c3.557.368,5.775,3.855,4.938,7.8-.784,3.723-4.015,6.524-7.372,6.506q-.29,0-.581-.031c-3.566-.36-5.775-3.855-4.939-7.792.785-3.735,4.023-6.531,7.384-6.513Q510.183,263.9,510.468,263.931Zm-21.342-2.148c-3.356-.018-6.586,2.776-7.37,6.506-.837,3.937,1.373,7.432,4.939,7.792q.29.03.581.031c3.356.017,6.588-2.783,7.372-6.506.836-3.937-1.381-7.432-4.939-7.792C489.515,261.795,489.321,261.785,489.127,261.784Zm-20.758-2.126c-3.356-.017-6.586,2.777-7.371,6.506-.836,3.937,1.374,7.432,4.939,7.792q.291.03.582.031c3.356.018,6.586-2.776,7.371-6.506.836-3.937-1.381-7.431-4.939-7.792C468.757,259.67,468.562,259.659,468.368,259.658Z" transform="translate(-459.964 -258.433)" fill="#cad4e0" opacity="0.367" style="mix-blend-mode: multiply;isolation: isolate"/>
    <path id="Trazado_510" data-name="Trazado 510" d="M510.411,263.849c3.557.369,5.775,3.855,4.938,7.8-.784,3.723-4.016,6.524-7.372,6.506q-.29,0-.581-.031c-3.566-.36-5.775-3.855-4.939-7.792.786-3.735,4.023-6.531,7.384-6.513Q510.126,263.82,510.411,263.849ZM489.07,261.7c-3.356-.018-6.586,2.776-7.371,6.506-.836,3.937,1.373,7.432,4.939,7.792q.291.03.581.031c3.357.018,6.588-2.783,7.372-6.506.837-3.937-1.38-7.432-4.938-7.792Q489.36,261.7,489.07,261.7Zm-20.758-2.126c-3.356-.017-6.586,2.776-7.371,6.506-.836,3.937,1.373,7.432,4.939,7.792.194.02.388.03.582.031,3.356.018,6.586-2.776,7.37-6.506.837-3.937-1.381-7.432-4.939-7.792C468.7,259.588,468.5,259.577,468.312,259.576Z" transform="translate(-459.939 -258.396)" fill="#c8d2de" opacity="0.39" style="mix-blend-mode: multiply;isolation: isolate"/>
    <path id="Trazado_511" data-name="Trazado 511" d="M510.354,263.767c3.557.369,5.775,3.855,4.938,7.8-.784,3.723-4.016,6.524-7.372,6.506-.193,0-.387-.011-.581-.032-3.566-.36-5.775-3.855-4.939-7.792.785-3.735,4.023-6.531,7.384-6.513Q510.068,263.738,510.354,263.767Zm-21.342-2.148c-3.356-.017-6.585,2.776-7.37,6.506-.837,3.937,1.373,7.431,4.939,7.792.193.02.387.03.581.031,3.356.018,6.588-2.783,7.372-6.506.837-3.937-1.381-7.432-4.939-7.792C489.4,261.631,489.206,261.62,489.012,261.619Zm-20.758-2.125c-3.356-.018-6.586,2.776-7.37,6.506-.837,3.937,1.373,7.432,4.939,7.792.194.02.388.03.582.031,3.356.017,6.586-2.776,7.371-6.506.836-3.937-1.381-7.432-4.939-7.792C468.642,259.506,468.448,259.5,468.254,259.494Z" transform="translate(-459.913 -258.359)" fill="#c6d1dc" opacity="0.413" style="mix-blend-mode: multiply;isolation: isolate"/>
    <path id="Trazado_512" data-name="Trazado 512" d="M510.3,263.685c3.557.369,5.775,3.855,4.938,7.8-.784,3.723-4.016,6.523-7.372,6.506-.193,0-.387-.011-.581-.031-3.565-.36-5.775-3.855-4.939-7.792.786-3.735,4.023-6.531,7.384-6.514Q510.011,263.657,510.3,263.685Zm-21.342-2.148c-3.356-.018-6.586,2.776-7.371,6.506-.836,3.937,1.373,7.431,4.939,7.792.194.02.388.03.581.032,3.357.018,6.589-2.783,7.372-6.506.836-3.937-1.381-7.432-4.939-7.792Q489.245,261.539,488.955,261.537ZM468.2,259.412c-3.356-.018-6.586,2.776-7.371,6.506-.836,3.937,1.373,7.431,4.939,7.792a5.711,5.711,0,0,0,.582.031c3.356.018,6.586-2.776,7.371-6.506.836-3.937-1.381-7.432-4.939-7.792Q468.487,259.414,468.2,259.412Z" transform="translate(-459.887 -258.323)" fill="#c4cfdb" opacity="0.436" style="mix-blend-mode: multiply;isolation: isolate"/>
    <path id="Trazado_513" data-name="Trazado 513" d="M510.239,263.6c3.557.369,5.775,3.855,4.938,7.8-.784,3.722-4.015,6.524-7.372,6.506-.193,0-.387-.011-.581-.031-3.566-.36-5.775-3.855-4.939-7.792.785-3.734,4.023-6.531,7.384-6.513Q509.953,263.575,510.239,263.6ZM488.9,261.455c-3.356-.018-6.586,2.776-7.371,6.506-.837,3.937,1.373,7.431,4.939,7.792.193.02.387.03.581.031,3.356.018,6.588-2.783,7.372-6.506.837-3.938-1.381-7.432-4.939-7.792C489.285,261.466,489.091,261.456,488.9,261.455Zm-20.758-2.125c-3.356-.018-6.586,2.776-7.371,6.506-.837,3.937,1.373,7.431,4.939,7.792.194.02.389.03.582.032,3.356.018,6.586-2.776,7.371-6.506.837-3.938-1.381-7.432-4.939-7.792C468.527,259.342,468.333,259.331,468.139,259.33Z" transform="translate(-459.862 -258.286)" fill="#c2cdd9" opacity="0.459" style="mix-blend-mode: multiply;isolation: isolate"/>
    <path id="Trazado_514" data-name="Trazado 514" d="M510.181,263.521c3.557.369,5.775,3.855,4.938,7.8-.784,3.723-4.016,6.524-7.372,6.506q-.291,0-.581-.032c-3.566-.36-5.775-3.855-4.939-7.792.785-3.735,4.023-6.531,7.384-6.513Q509.9,263.493,510.181,263.521Zm-21.342-2.148c-3.356-.018-6.586,2.776-7.371,6.506-.836,3.938,1.374,7.432,4.939,7.792.194.02.388.03.581.031,3.357.018,6.589-2.783,7.372-6.506.836-3.937-1.381-7.432-4.939-7.792C489.228,261.384,489.034,261.374,488.84,261.373Zm-20.758-2.125c-3.356-.018-6.586,2.776-7.371,6.506-.836,3.938,1.374,7.432,4.939,7.792.195.02.388.03.582.031,3.356.018,6.586-2.776,7.371-6.506.836-3.938-1.381-7.432-4.939-7.792C468.469,259.259,468.276,259.249,468.082,259.248Z" transform="translate(-459.836 -258.249)" fill="#c0cbd7" opacity="0.481" style="mix-blend-mode: multiply;isolation: isolate"/>
    <path id="Trazado_515" data-name="Trazado 515" d="M510.124,263.439c3.557.368,5.775,3.855,4.938,7.8-.784,3.723-4.016,6.523-7.372,6.506q-.29,0-.581-.032c-3.566-.36-5.775-3.855-4.939-7.792.786-3.735,4.023-6.531,7.384-6.513Q509.839,263.411,510.124,263.439Zm-21.341-2.148c-3.356-.018-6.586,2.776-7.371,6.506-.837,3.937,1.373,7.432,4.939,7.792.193.02.387.03.581.031,3.357.018,6.588-2.783,7.372-6.506.837-3.937-1.381-7.431-4.939-7.792C489.17,261.3,488.976,261.292,488.783,261.291Zm-20.758-2.125c-3.356-.018-6.586,2.776-7.371,6.506-.837,3.937,1.373,7.432,4.939,7.792.194.02.388.03.582.031,3.356.018,6.586-2.776,7.371-6.506.837-3.937-1.381-7.431-4.939-7.792A5.717,5.717,0,0,0,468.024,259.166Z" transform="translate(-459.81 -258.213)" fill="#bfc9d6" opacity="0.504" style="mix-blend-mode: multiply;isolation: isolate"/>
    <path id="Trazado_516" data-name="Trazado 516" d="M510.066,263.356c3.557.369,5.775,3.855,4.938,7.8-.784,3.723-4.015,6.524-7.372,6.506q-.29,0-.581-.031c-3.566-.36-5.775-3.855-4.939-7.792.785-3.735,4.023-6.531,7.384-6.513Q509.781,263.328,510.066,263.356Zm-21.342-2.148c-3.356-.018-6.586,2.776-7.37,6.506-.837,3.937,1.373,7.432,4.939,7.792.193.02.387.03.581.031,3.356.017,6.588-2.783,7.372-6.506.836-3.937-1.381-7.432-4.939-7.792C489.113,261.22,488.919,261.209,488.725,261.209Zm-20.758-2.126c-3.356-.017-6.586,2.777-7.371,6.506-.836,3.937,1.374,7.432,4.939,7.792q.292.03.582.031c3.356.018,6.586-2.776,7.371-6.506.836-3.937-1.381-7.431-4.939-7.792C468.355,259.095,468.16,259.084,467.966,259.083Z" transform="translate(-459.785 -258.176)" fill="#bdc7d4" opacity="0.527" style="mix-blend-mode: multiply;isolation: isolate"/>
    <path id="Trazado_517" data-name="Trazado 517" d="M510.009,263.274c3.557.369,5.775,3.855,4.937,7.8-.783,3.723-4.015,6.524-7.372,6.506q-.29,0-.581-.031c-3.566-.361-5.775-3.855-4.939-7.792.786-3.735,4.023-6.531,7.384-6.513Q509.724,263.245,510.009,263.274Zm-21.342-2.148c-3.356-.018-6.586,2.776-7.371,6.506-.836,3.937,1.373,7.432,4.939,7.792q.291.03.581.031c3.357.018,6.588-2.783,7.372-6.506.837-3.937-1.381-7.432-4.939-7.792C489.056,261.138,488.861,261.127,488.668,261.127ZM467.909,259c-3.356-.017-6.586,2.776-7.371,6.506-.836,3.937,1.373,7.432,4.939,7.792.194.02.388.03.582.032,3.356.017,6.585-2.776,7.37-6.506.837-3.937-1.381-7.432-4.939-7.792C468.3,259.013,468.1,259,467.909,259Z" transform="translate(-459.759 -258.139)" fill="#bbc5d2" opacity="0.55" style="mix-blend-mode: multiply;isolation: isolate"/>
    <path id="Trazado_518" data-name="Trazado 518" d="M509.952,263.192c3.557.368,5.775,3.855,4.938,7.8-.784,3.723-4.016,6.523-7.372,6.506-.193,0-.387-.011-.581-.031-3.566-.36-5.775-3.855-4.939-7.792.785-3.735,4.023-6.531,7.384-6.513Q509.666,263.163,509.952,263.192Zm-21.342-2.148c-3.356-.017-6.586,2.776-7.37,6.506-.837,3.937,1.373,7.431,4.939,7.792.193.02.387.03.581.032,3.356.018,6.588-2.783,7.372-6.506.837-3.937-1.381-7.432-4.939-7.792Q488.9,261.046,488.61,261.044Zm-20.758-2.125c-3.356-.018-6.586,2.776-7.37,6.506-.837,3.937,1.373,7.432,4.939,7.792.194.02.388.03.582.031,3.356.017,6.586-2.776,7.371-6.506.836-3.937-1.381-7.432-4.939-7.792Q468.143,258.921,467.852,258.919Z" transform="translate(-459.733 -258.102)" fill="#b9c3d1" opacity="0.573" style="mix-blend-mode: multiply;isolation: isolate"/>
    <path id="Trazado_519" data-name="Trazado 519" d="M509.895,263.11c3.557.369,5.775,3.855,4.938,7.8-.784,3.723-4.016,6.524-7.372,6.506-.193,0-.387-.011-.581-.031-3.565-.36-5.775-3.855-4.939-7.792.786-3.735,4.023-6.531,7.384-6.514Q509.609,263.082,509.895,263.11Zm-21.342-2.148c-3.356-.018-6.586,2.776-7.371,6.506-.836,3.937,1.373,7.431,4.939,7.792.194.021.388.03.581.031,3.357.018,6.589-2.783,7.372-6.506.837-3.937-1.38-7.432-4.938-7.792Q488.843,260.964,488.553,260.962Zm-20.758-2.125c-3.356-.018-6.586,2.776-7.371,6.506-.836,3.937,1.373,7.431,4.939,7.792a5.729,5.729,0,0,0,.582.032c3.356.018,6.586-2.776,7.37-6.506.837-3.937-1.381-7.432-4.939-7.792Q468.085,258.839,467.795,258.837Z" transform="translate(-459.708 -258.065)" fill="#b7c2cf" opacity="0.596" style="mix-blend-mode: multiply;isolation: isolate"/>
    <path id="Trazado_520" data-name="Trazado 520" d="M509.837,263.028c3.557.369,5.775,3.855,4.938,7.8-.784,3.722-4.015,6.524-7.372,6.506-.193,0-.387-.011-.581-.031-3.566-.36-5.775-3.855-4.939-7.792.785-3.734,4.023-6.531,7.384-6.513Q509.551,263,509.837,263.028ZM488.5,260.88c-3.356-.018-6.586,2.776-7.371,6.506-.837,3.937,1.373,7.431,4.939,7.792.193.02.387.03.581.031,3.356.018,6.588-2.783,7.372-6.506.837-3.938-1.381-7.432-4.939-7.792C488.883,260.891,488.689,260.881,488.5,260.88Zm-20.759-2.125c-3.356-.018-6.586,2.776-7.37,6.506-.837,3.937,1.373,7.431,4.939,7.792.194.021.388.03.582.031,3.356.018,6.586-2.776,7.371-6.506.837-3.938-1.381-7.432-4.939-7.792Q468.028,258.757,467.737,258.755Z" transform="translate(-459.682 -258.029)" fill="#b5c0cd" opacity="0.619" style="mix-blend-mode: multiply;isolation: isolate"/>
    <path id="Trazado_521" data-name="Trazado 521" d="M509.779,262.946c3.557.369,5.775,3.855,4.938,7.8-.784,3.723-4.015,6.524-7.372,6.506q-.291,0-.581-.031c-3.566-.36-5.776-3.855-4.939-7.792.785-3.735,4.023-6.531,7.384-6.513Q509.494,262.918,509.779,262.946ZM488.438,260.8c-3.356-.018-6.586,2.776-7.371,6.506-.836,3.938,1.374,7.432,4.939,7.792.194.02.388.03.581.032,3.357.018,6.589-2.783,7.372-6.506.836-3.937-1.381-7.432-4.939-7.792C488.826,260.809,488.632,260.8,488.438,260.8Zm-20.758-2.125c-3.356-.018-6.586,2.776-7.371,6.506-.836,3.938,1.373,7.432,4.939,7.792.194.02.388.03.582.031,3.356.018,6.586-2.776,7.371-6.506.836-3.938-1.381-7.432-4.939-7.792C468.067,258.684,467.873,258.674,467.68,258.673Z" transform="translate(-459.656 -257.992)" fill="#b3becb" opacity="0.642" style="mix-blend-mode: multiply;isolation: isolate"/>
    <path id="Trazado_522" data-name="Trazado 522" d="M509.722,262.864c3.557.369,5.775,3.855,4.938,7.8-.784,3.723-4.015,6.524-7.372,6.506q-.29,0-.581-.031c-3.566-.36-5.775-3.855-4.939-7.792.786-3.735,4.023-6.531,7.384-6.513Q509.437,262.836,509.722,262.864Zm-21.341-2.148c-3.356-.018-6.586,2.776-7.371,6.506-.837,3.937,1.373,7.432,4.939,7.792.193.02.387.03.581.032,3.357.018,6.588-2.783,7.372-6.506.837-3.937-1.381-7.431-4.939-7.792C488.768,260.727,488.574,260.717,488.381,260.716Zm-20.758-2.125c-3.356-.018-6.586,2.776-7.371,6.506-.837,3.937,1.373,7.432,4.939,7.792.194.02.388.03.582.031,3.356.018,6.586-2.776,7.371-6.506.837-3.937-1.381-7.431-4.939-7.792A5.71,5.71,0,0,0,467.622,258.591Z" transform="translate(-459.63 -257.955)" fill="#b1bcca" opacity="0.665" style="mix-blend-mode: multiply;isolation: isolate"/>
    <path id="Trazado_523" data-name="Trazado 523" d="M509.665,262.781c3.557.369,5.775,3.855,4.938,7.8-.784,3.723-4.016,6.524-7.372,6.506-.194,0-.387-.011-.581-.031-3.566-.36-5.775-3.855-4.939-7.792.785-3.735,4.023-6.531,7.384-6.513Q509.379,262.753,509.665,262.781Zm-21.342-2.148c-3.356-.018-6.586,2.776-7.37,6.506-.837,3.937,1.373,7.432,4.939,7.792.193.02.387.03.581.032,3.356.017,6.588-2.784,7.372-6.506.836-3.937-1.381-7.432-4.939-7.792C488.711,260.645,488.517,260.634,488.323,260.634Zm-20.758-2.126c-3.356-.017-6.586,2.776-7.371,6.506-.836,3.937,1.374,7.432,4.939,7.792q.292.03.582.031c3.356.018,6.586-2.776,7.371-6.506.836-3.937-1.381-7.431-4.939-7.792Q467.855,258.51,467.565,258.508Z" transform="translate(-459.605 -257.918)" fill="#afbac8" opacity="0.688" style="mix-blend-mode: multiply;isolation: isolate"/>
    <path id="Trazado_524" data-name="Trazado 524" d="M509.607,262.7c3.557.369,5.775,3.855,4.937,7.8-.783,3.723-4.016,6.524-7.372,6.506-.193,0-.387-.011-.581-.031-3.566-.36-5.775-3.855-4.939-7.792.786-3.735,4.023-6.531,7.384-6.513Q509.322,262.67,509.607,262.7Zm-21.342-2.148c-3.356-.017-6.586,2.776-7.371,6.506-.836,3.937,1.373,7.432,4.939,7.792q.291.03.581.031c3.357.018,6.588-2.783,7.372-6.506.837-3.937-1.381-7.432-4.939-7.792C488.653,260.563,488.459,260.552,488.266,260.551Zm-20.758-2.125c-3.356-.017-6.586,2.776-7.371,6.506-.837,3.937,1.373,7.432,4.939,7.792.194.02.388.03.582.031,3.356.017,6.585-2.776,7.37-6.506.836-3.937-1.381-7.432-4.939-7.792C467.9,258.438,467.7,258.427,467.507,258.426Z" transform="translate(-459.579 -257.882)" fill="#adb8c6" opacity="0.711" style="mix-blend-mode: multiply;isolation: isolate"/>
    <path id="Trazado_525" data-name="Trazado 525" d="M509.55,262.617c3.557.369,5.775,3.855,4.938,7.8-.784,3.723-4.015,6.524-7.372,6.506-.193,0-.387-.011-.581-.032-3.566-.36-5.775-3.855-4.939-7.792.785-3.735,4.023-6.531,7.384-6.514Q509.264,262.589,509.55,262.617Zm-21.342-2.148c-3.356-.017-6.586,2.776-7.37,6.506-.837,3.937,1.373,7.431,4.939,7.792.193.02.387.03.581.031,3.356.018,6.588-2.783,7.372-6.506.837-3.937-1.381-7.432-4.939-7.792C488.6,260.481,488.4,260.47,488.208,260.469Zm-20.758-2.125c-3.356-.018-6.586,2.776-7.37,6.506-.837,3.937,1.373,7.431,4.939,7.792.194.02.388.03.582.031,3.356.017,6.586-2.776,7.371-6.506.836-3.937-1.381-7.432-4.939-7.792C467.838,258.355,467.644,258.345,467.45,258.344Z" transform="translate(-459.553 -257.845)" fill="#abb6c5" opacity="0.734" style="mix-blend-mode: multiply;isolation: isolate"/>
    <path id="Trazado_526" data-name="Trazado 526" d="M509.492,262.535c3.557.369,5.775,3.855,4.938,7.8-.784,3.723-4.016,6.524-7.372,6.506-.193,0-.387-.011-.581-.031-3.566-.36-5.775-3.855-4.939-7.792.786-3.735,4.023-6.531,7.384-6.514Q509.207,262.507,509.492,262.535Zm-21.342-2.148c-3.356-.018-6.586,2.776-7.371,6.506-.836,3.937,1.373,7.431,4.939,7.792.194.02.387.03.581.031,3.357.018,6.588-2.783,7.372-6.506.837-3.937-1.38-7.432-4.938-7.792Q488.441,260.389,488.151,260.387Zm-20.758-2.125c-3.356-.018-6.586,2.776-7.371,6.506-.836,3.937,1.373,7.431,4.939,7.792a5.744,5.744,0,0,0,.582.031c3.356.018,6.586-2.776,7.37-6.506.837-3.937-1.381-7.432-4.939-7.792C467.78,258.273,467.586,258.263,467.392,258.262Z" transform="translate(-459.528 -257.808)" fill="#a9b5c3" opacity="0.757" style="mix-blend-mode: multiply;isolation: isolate"/>
    <path id="Trazado_527" data-name="Trazado 527" d="M509.435,262.453c3.557.369,5.775,3.855,4.938,7.8-.784,3.722-4.016,6.523-7.372,6.506-.193,0-.387-.011-.581-.031-3.566-.36-5.776-3.855-4.939-7.792.785-3.734,4.023-6.531,7.384-6.513Q509.149,262.425,509.435,262.453Zm-21.341-2.148c-3.356-.018-6.586,2.776-7.371,6.506-.837,3.937,1.373,7.431,4.939,7.792.193.02.387.03.581.031,3.356.018,6.588-2.783,7.372-6.506.836-3.938-1.381-7.432-4.939-7.792C488.481,260.316,488.287,260.306,488.094,260.305Zm-20.759-2.125c-3.356-.018-6.586,2.776-7.37,6.506-.837,3.937,1.373,7.431,4.939,7.792.194.02.388.03.582.032,3.356.018,6.586-2.776,7.371-6.506.837-3.938-1.381-7.432-4.939-7.792Q467.626,258.182,467.335,258.18Z" transform="translate(-459.502 -257.771)" fill="#a7b3c1" opacity="0.78" style="mix-blend-mode: multiply;isolation: isolate"/>
    <path id="Trazado_528" data-name="Trazado 528" d="M509.377,262.371c3.557.369,5.775,3.855,4.938,7.8-.784,3.723-4.016,6.523-7.372,6.506q-.291,0-.581-.032c-3.566-.36-5.775-3.855-4.939-7.792.786-3.735,4.023-6.531,7.384-6.513Q509.092,262.343,509.377,262.371Zm-21.342-2.148c-3.356-.018-6.586,2.776-7.371,6.506-.836,3.937,1.373,7.432,4.939,7.792q.291.03.581.031c3.357.018,6.589-2.783,7.372-6.506.836-3.938-1.381-7.432-4.939-7.792C488.424,260.234,488.23,260.224,488.036,260.223ZM467.278,258.1c-3.356-.018-6.586,2.776-7.371,6.506-.836,3.938,1.373,7.432,4.939,7.792.195.02.388.03.582.032,3.356.018,6.586-2.776,7.371-6.506.836-3.938-1.381-7.432-4.939-7.792C467.665,258.109,467.471,258.1,467.278,258.1Z" transform="translate(-459.476 -257.735)" fill="#a5b1c0" opacity="0.802" style="mix-blend-mode: multiply;isolation: isolate"/>
    <path id="Trazado_529" data-name="Trazado 529" d="M509.32,262.289c3.557.369,5.775,3.855,4.938,7.8-.784,3.723-4.016,6.523-7.372,6.506q-.29,0-.581-.032c-3.566-.36-5.775-3.855-4.939-7.792.786-3.735,4.023-6.531,7.384-6.513C508.94,262.26,509.13,262.27,509.32,262.289Zm-21.341-2.148c-3.356-.018-6.586,2.776-7.371,6.506-.837,3.937,1.373,7.432,4.939,7.792.193.02.387.03.581.031,3.357.017,6.588-2.783,7.372-6.506.837-3.937-1.381-7.431-4.939-7.792C488.367,260.152,488.172,260.142,487.979,260.141Zm-20.758-2.125c-3.356-.018-6.586,2.776-7.371,6.506-.837,3.937,1.373,7.432,4.939,7.792.194.02.388.03.582.031,3.356.018,6.586-2.776,7.371-6.506.837-3.937-1.381-7.431-4.939-7.792A5.728,5.728,0,0,0,467.22,258.016Z" transform="translate(-459.451 -257.698)" fill="#a3afbe" opacity="0.825" style="mix-blend-mode: multiply;isolation: isolate"/>
    <path id="Trazado_530" data-name="Trazado 530" d="M509.263,262.206c3.557.369,5.775,3.855,4.938,7.8-.784,3.723-4.016,6.523-7.372,6.506q-.291,0-.581-.031c-3.566-.36-5.775-3.855-4.939-7.792.785-3.735,4.023-6.531,7.384-6.513C508.882,262.178,509.072,262.187,509.263,262.206Zm-21.342-2.148c-3.356-.018-6.586,2.776-7.371,6.506-.836,3.937,1.374,7.432,4.939,7.792.193.02.387.03.581.031,3.356.017,6.588-2.784,7.372-6.506.836-3.937-1.381-7.432-4.939-7.792C488.309,260.07,488.115,260.059,487.921,260.059Zm-20.758-2.126c-3.356-.017-6.586,2.776-7.371,6.506-.836,3.937,1.374,7.432,4.939,7.792q.292.03.582.032c3.356.018,6.586-2.776,7.371-6.506.836-3.937-1.381-7.431-4.939-7.792Q467.453,257.935,467.162,257.933Z" transform="translate(-459.425 -257.661)" fill="#a1adbc" opacity="0.848" style="mix-blend-mode: multiply;isolation: isolate"/>
    <path id="Trazado_531" data-name="Trazado 531" d="M509.2,262.124c3.557.369,5.775,3.855,4.938,7.8-.784,3.723-4.015,6.524-7.372,6.506-.193,0-.387-.011-.581-.031-3.566-.36-5.775-3.855-4.939-7.792.786-3.735,4.023-6.531,7.384-6.513Q508.92,262.1,509.2,262.124Zm-21.341-2.148c-3.356-.017-6.586,2.776-7.371,6.506-.836,3.937,1.373,7.431,4.939,7.792q.291.03.581.031c3.357.018,6.588-2.783,7.372-6.506.837-3.937-1.381-7.432-4.939-7.792C488.251,259.988,488.057,259.977,487.864,259.976Zm-20.758-2.125c-3.356-.017-6.586,2.776-7.371,6.506-.837,3.937,1.373,7.432,4.939,7.792.194.02.388.03.582.032,3.356.017,6.585-2.776,7.37-6.506.837-3.937-1.381-7.432-4.939-7.792C467.493,257.863,467.3,257.852,467.105,257.851Z" transform="translate(-459.399 -257.624)" fill="#9fabba" opacity="0.871" style="mix-blend-mode: multiply;isolation: isolate"/>
    <path id="Trazado_532" data-name="Trazado 532" d="M509.148,262.042c3.557.369,5.775,3.855,4.938,7.8-.784,3.723-4.016,6.524-7.372,6.506-.193,0-.387-.011-.581-.031-3.566-.36-5.775-3.855-4.939-7.792.785-3.735,4.023-6.531,7.384-6.514Q508.862,262.014,509.148,262.042Zm-21.342-2.148c-3.356-.017-6.586,2.776-7.37,6.506-.837,3.937,1.373,7.431,4.939,7.792.193.02.387.03.581.031,3.356.018,6.588-2.783,7.372-6.506.836-3.937-1.381-7.432-4.939-7.792C488.195,259.906,488,259.9,487.806,259.894Zm-20.758-2.125c-3.356-.018-6.586,2.776-7.37,6.506-.837,3.937,1.373,7.431,4.939,7.792q.291.031.582.032c3.356.017,6.586-2.776,7.371-6.506.836-3.937-1.381-7.432-4.939-7.792Q467.339,257.771,467.048,257.769Z" transform="translate(-459.374 -257.588)" fill="#9da9b9" opacity="0.894" style="mix-blend-mode: multiply;isolation: isolate"/>
    <path id="Trazado_533" data-name="Trazado 533" d="M509.09,261.96c3.557.369,5.775,3.855,4.938,7.8-.784,3.723-4.016,6.524-7.372,6.506-.193,0-.387-.011-.581-.031-3.566-.36-5.775-3.855-4.939-7.792.786-3.735,4.023-6.531,7.385-6.514Q508.8,261.932,509.09,261.96Zm-21.342-2.148c-3.356-.018-6.586,2.776-7.371,6.506-.836,3.937,1.373,7.431,4.939,7.792.194.02.387.03.581.032,3.357.018,6.588-2.783,7.372-6.506.837-3.937-1.38-7.432-4.938-7.792C488.137,259.824,487.942,259.813,487.749,259.812Zm-20.758-2.125c-3.356-.018-6.586,2.776-7.371,6.506-.836,3.937,1.373,7.431,4.939,7.792a5.728,5.728,0,0,0,.582.031c3.356.018,6.586-2.776,7.37-6.506.837-3.937-1.381-7.432-4.939-7.792C467.378,257.7,467.184,257.688,466.99,257.687Z" transform="translate(-459.348 -257.551)" fill="#9ba8b7" opacity="0.917" style="mix-blend-mode: multiply;isolation: isolate"/>
    <path id="Trazado_534" data-name="Trazado 534" d="M509.033,261.878c3.557.369,5.775,3.855,4.938,7.8-.783,3.722-4.015,6.523-7.372,6.506q-.29,0-.581-.032c-3.566-.36-5.775-3.855-4.939-7.792.785-3.734,4.023-6.531,7.384-6.513Q508.747,261.85,509.033,261.878Zm-21.341-2.148c-3.356-.018-6.586,2.776-7.371,6.506-.837,3.937,1.373,7.431,4.939,7.792.193.02.387.03.581.032,3.356.018,6.588-2.783,7.372-6.506.837-3.938-1.381-7.432-4.939-7.792C488.079,259.741,487.885,259.731,487.692,259.73ZM466.933,257.6c-3.356-.018-6.586,2.776-7.37,6.506-.837,3.937,1.373,7.431,4.939,7.792.194.02.388.03.582.031,3.356.018,6.586-2.776,7.371-6.506.836-3.938-1.381-7.432-4.939-7.792Q467.224,257.607,466.933,257.6Z" transform="translate(-459.322 -257.514)" fill="#99a6b5" opacity="0.94" style="mix-blend-mode: multiply;isolation: isolate"/>
    <path id="Trazado_535" data-name="Trazado 535" d="M508.975,261.8c3.557.369,5.775,3.855,4.938,7.8-.784,3.723-4.015,6.524-7.372,6.506q-.29,0-.581-.031c-3.565-.36-5.775-3.855-4.939-7.792.786-3.735,4.023-6.531,7.384-6.513Q508.69,261.768,508.975,261.8Zm-21.342-2.148c-3.356-.018-6.586,2.776-7.371,6.506-.836,3.937,1.373,7.432,4.939,7.792q.291.03.581.032c3.357.018,6.589-2.783,7.372-6.506.836-3.938-1.381-7.432-4.939-7.792C488.022,259.659,487.828,259.649,487.634,259.648Zm-20.758-2.125c-3.356-.018-6.586,2.776-7.371,6.506-.836,3.938,1.373,7.432,4.939,7.792.194.02.388.03.582.031,3.356.018,6.586-2.776,7.371-6.506.836-3.938-1.381-7.432-4.939-7.792C467.263,257.534,467.069,257.524,466.875,257.523Z" transform="translate(-459.296 -257.478)" fill="#97a4b4" opacity="0.963" style="mix-blend-mode: multiply;isolation: isolate"/>
    <path id="Trazado_536" data-name="Trazado 536" d="M508.918,261.714c3.557.368,5.775,3.855,4.938,7.8-.784,3.723-4.015,6.523-7.372,6.506q-.29,0-.581-.031c-3.566-.36-5.775-3.855-4.939-7.792.785-3.735,4.023-6.531,7.384-6.513C508.538,261.685,508.728,261.7,508.918,261.714Zm-21.341-2.148c-3.356-.018-6.586,2.776-7.371,6.506-.837,3.937,1.373,7.432,4.939,7.792.193.02.387.03.581.031,3.356.017,6.588-2.783,7.372-6.506.837-3.937-1.381-7.431-4.939-7.792C487.964,259.577,487.77,259.567,487.577,259.566Zm-20.758-2.125c-3.356-.018-6.586,2.776-7.371,6.506-.837,3.937,1.373,7.432,4.939,7.792.194.02.388.03.582.032,3.356.018,6.586-2.776,7.371-6.506.837-3.937-1.381-7.431-4.939-7.792A5.7,5.7,0,0,0,466.818,257.441Z" transform="translate(-459.271 -257.441)" fill="#95a2b2" opacity="0.986" style="mix-blend-mode: multiply;isolation: isolate"/>
  </g>
  <path id="Trazado_537" data-name="Trazado 537" d="M518.79,239.134c5.923-29.094-16.252-51.792-48.758-54.525q-3.645-.307-7.243-.265c-29.679.325-56.225,17.978-61.711,44.9a41.945,41.945,0,0,0,3,26.9l-9.418,16.3c-1.3,2.249-.016,4.7,2.134,4.675a3.118,3.118,0,0,0,.785-.114l19.265-5.31c8.569,6.655,19.945,10.974,32.987,12.072q3.646.306,7.245.265C486.757,283.708,513.3,266.053,518.79,239.134Zm-61.721,44.609c-2.388.027-4.816-.061-7.216-.264a66.25,66.25,0,0,1-23.32-6.152,53.215,53.215,0,0,1-9.509-5.858l-.118-.092-19.411,5.35a2.764,2.764,0,0,1-.708.1,2.257,2.257,0,0,1-1.016-.221,2.357,2.357,0,0,1-1.21-1.443,3.208,3.208,0,0,1,.352-2.582l9.493-16.431-.064-.134a41.943,41.943,0,0,1-2.976-26.722c5.291-25.961,30.551-44.327,61.426-44.666,2.391-.026,4.818.062,7.215.264a66.287,66.287,0,0,1,23.352,6.157c19.613,9.46,29.247,27.863,25.143,48.026C513.209,265.039,487.948,283.407,457.069,283.743Z" transform="translate(-394.136 -184.339)" opacity="0.7" fill="url(#linear-gradient-4)" style="mix-blend-mode: overlay;isolation: isolate"/>
  <path id="Trazado_538" data-name="Trazado 538" d="M547.7,275.065c.031-.057.057-.118.087-.177.043-.082.084-.165.123-.249.022-.045.045-.087.066-.133s.041-.108.064-.161c.063-.147.122-.3.176-.446.019-.052.043-.1.061-.154.012-.034.018-.071.029-.105a8.509,8.509,0,0,0,.24-.874,8.151,8.151,0,0,0,.151-1.076c.009-.118,0-.231.006-.347.006-.2.02-.392.011-.582,0-.042-.01-.082-.013-.124-.005-.087-.018-.172-.026-.259-.013-.133-.02-.269-.041-.4s-.049-.255-.076-.381c-.008-.039-.014-.077-.023-.115s-.009-.05-.015-.075q-.06-.24-.135-.472c-.04-.121-.084-.24-.13-.358,0-.01-.008-.021-.012-.033l-.009-.024q-.077-.192-.166-.376c-.057-.118-.118-.234-.181-.348-.018-.032-.039-.063-.057-.095l-.036-.06c-.034-.056-.066-.114-.1-.17q-.1-.155-.211-.3c-.07-.094-.143-.186-.219-.276l0-.005,0-.006q-.119-.141-.247-.273t-.268-.26c-.04-.036-.082-.068-.122-.1l-.06-.05c-.038-.032-.075-.066-.114-.1q-.162-.127-.334-.242-.145-.1-.3-.185l-1.471-.85a5.381,5.381,0,0,1,.746.524l.061.051a5.63,5.63,0,0,1,.642.642l0,.005a5.768,5.768,0,0,1,.532.749c.012.02.025.04.036.06a6.2,6.2,0,0,1,.413.842c0,.011.007.022.012.033a6.547,6.547,0,0,1,.28.9c.009.038.015.077.023.115a7.15,7.15,0,0,1,.118.781c.008.086.02.172.026.259.014.231.009.468,0,.706,0,.117,0,.23-.007.348a8.055,8.055,0,0,1-.151,1.076,8.563,8.563,0,0,1-.24.875c-.028.087-.059.172-.09.258q-.082.227-.176.448c-.042.1-.084.2-.129.293s-.081.167-.124.25c-.062.122-.126.241-.193.359-.034.06-.069.119-.1.178-.1.164-.2.325-.311.48l-.017.025c-.117.165-.24.323-.366.478l-.091.109c-.127.15-.258.3-.394.438l-.025.025c-.132.135-.269.264-.408.388-.03.027-.06.055-.091.081-.145.125-.293.246-.445.36l-.09.065q-.2.145-.406.277l-.109.07c-.163.1-.329.2-.5.282-.04.021-.081.039-.122.059q-.2.1-.4.182c-.075.031-.151.06-.227.089-.1.039-.209.076-.314.111s-.241.073-.362.106c-.09.024-.18.048-.271.068-.153.034-.307.059-.461.081-.073.01-.146.025-.22.033a6.109,6.109,0,0,1-.688.039q-.29,0-.581-.031a5.8,5.8,0,0,1-.6-.092,5.424,5.424,0,0,1-1.613-.613h0l1.471.85a5.49,5.49,0,0,0,2.21.7c.194.02.387.03.581.031a6.1,6.1,0,0,0,.689-.038c.073-.008.146-.022.22-.033.155-.022.309-.047.462-.081.031-.007.064-.009.1-.017.059-.014.117-.035.176-.051.121-.033.242-.066.362-.106.041-.013.083-.022.124-.036.065-.022.128-.05.191-.075s.151-.057.225-.088c.035-.015.072-.027.107-.042.1-.044.2-.093.293-.141.04-.02.081-.038.121-.058l.035-.017c.136-.071.27-.146.4-.227l.06-.039.107-.068c.067-.043.136-.085.2-.13s.137-.1.205-.148l.088-.064.05-.036c.109-.083.218-.17.324-.26.024-.02.047-.043.071-.064l.091-.081c.049-.044.1-.086.146-.13.09-.084.177-.171.263-.259l.024-.024.009-.009c.1-.1.193-.2.286-.31.034-.039.066-.08.1-.119l.09-.108c.029-.036.06-.071.089-.107q.141-.179.274-.367l0-.005.014-.021q.131-.186.253-.38c.021-.034.04-.07.061-.1q.052-.088.1-.177C547.63,275.187,547.667,275.128,547.7,275.065Z" transform="translate(-455.949 -220.35)" fill="url(#linear-gradient-5)"/>
  <path id="Trazado_539" data-name="Trazado 539" d="M510.134,271.225c.031-.057.057-.118.087-.176.043-.083.085-.166.124-.25.021-.044.045-.087.065-.132s.041-.108.064-.161q.094-.22.176-.446c.019-.053.043-.1.061-.155.012-.034.018-.071.029-.106a8.527,8.527,0,0,0,.24-.874,8.088,8.088,0,0,0,.151-1.074c.009-.117,0-.23.007-.345.006-.194.019-.392.011-.582,0-.042-.01-.082-.013-.124-.005-.087-.018-.171-.026-.257-.014-.134-.02-.27-.041-.4s-.049-.255-.077-.381c-.008-.038-.014-.077-.023-.114s-.009-.051-.015-.075c-.039-.16-.084-.318-.135-.472-.039-.121-.083-.239-.129-.356,0-.011-.008-.023-.012-.034l-.009-.025c-.051-.128-.107-.254-.166-.376s-.118-.234-.181-.348c-.018-.032-.038-.062-.056-.093l-.036-.059c-.034-.057-.067-.116-.1-.172q-.1-.155-.211-.3c-.069-.093-.141-.185-.216-.273l-.006-.008,0-.007q-.119-.141-.247-.273t-.268-.26c-.039-.035-.081-.068-.121-.1l-.059-.05c-.039-.033-.076-.066-.115-.1q-.162-.127-.333-.242c-.1-.065-.2-.126-.3-.185l-1.47-.849a5.449,5.449,0,0,1,.745.523l.06.051a5.611,5.611,0,0,1,.64.642l.006.007a5.911,5.911,0,0,1,.53.748l.035.059a6.143,6.143,0,0,1,.413.843l.013.033a6.648,6.648,0,0,1,.279.9c.009.038.015.077.023.115a6.985,6.985,0,0,1,.117.78c.009.086.021.171.026.259.015.23.009.467,0,.705,0,.115,0,.229-.006.346a8.091,8.091,0,0,1-.151,1.074,8.573,8.573,0,0,1-.24.875c-.029.087-.059.172-.09.258q-.082.228-.177.449c-.041.1-.083.2-.128.291s-.082.169-.124.251c-.062.121-.126.241-.193.358-.035.06-.068.12-.1.179-.1.164-.2.325-.311.481l-.016.024c-.117.165-.24.324-.366.479l-.091.109c-.127.15-.258.3-.393.438l-.026.026c-.132.134-.268.263-.407.387-.031.028-.061.056-.092.082q-.216.188-.444.36l-.09.065q-.2.145-.407.277c-.035.023-.071.047-.107.069-.164.1-.33.2-.5.282-.04.021-.082.039-.122.059q-.2.1-.4.182c-.076.031-.152.06-.228.089-.1.04-.208.076-.313.111s-.241.074-.363.106c-.09.024-.18.048-.271.068-.152.034-.306.059-.46.081-.074.011-.148.025-.222.033a6.083,6.083,0,0,1-.689.039q-.29,0-.581-.032a5.5,5.5,0,0,1-2.21-.705l1.471.85a5.5,5.5,0,0,0,2.21.705q.291.03.581.031a5.969,5.969,0,0,0,.688-.038c.075-.008.148-.022.222-.033.154-.022.308-.048.461-.081.031-.007.064-.009.095-.017.059-.014.116-.035.175-.051.122-.032.244-.066.364-.106.041-.013.083-.022.123-.036.064-.023.127-.051.19-.075s.153-.057.228-.09c.035-.014.071-.026.107-.041.1-.044.2-.092.292-.14.041-.02.082-.038.122-.059l.035-.017c.137-.071.271-.146.4-.227l.06-.038.108-.07c.067-.043.135-.084.2-.129s.137-.1.206-.148l.088-.064.05-.036c.109-.084.218-.171.324-.26.024-.02.047-.043.071-.064l.092-.082c.049-.043.1-.085.146-.13.089-.083.176-.17.262-.257l.026-.026.009-.008c.1-.1.193-.2.286-.311.034-.039.066-.08.1-.119l.09-.108c.029-.036.06-.071.089-.108q.142-.179.274-.366l0-.006.016-.023c.086-.124.171-.249.251-.378.021-.034.04-.07.06-.1.036-.059.07-.118.1-.177S510.1,271.287,510.134,271.225Z" transform="translate(-439.685 -218.635)" fill="url(#linear-gradient-6)"/>
  <path id="Trazado_540" data-name="Trazado 540" d="M472.566,267.384c.031-.058.057-.119.087-.177.043-.083.085-.167.125-.252.02-.044.044-.086.064-.13s.041-.107.064-.16c.063-.148.123-.3.177-.449.019-.052.043-.1.06-.152.012-.034.018-.071.029-.106a8.439,8.439,0,0,0,.241-.879,8.089,8.089,0,0,0,.151-1.074c.009-.118,0-.231.007-.348.005-.194.019-.39.01-.58,0-.042-.01-.082-.013-.123-.005-.088-.018-.173-.026-.26-.013-.133-.02-.269-.04-.4s-.049-.255-.077-.381c-.008-.038-.014-.077-.023-.115s-.009-.05-.015-.075c-.039-.16-.085-.318-.135-.472-.039-.121-.083-.239-.129-.356,0-.011-.008-.022-.012-.033l-.009-.026q-.077-.191-.166-.376c-.057-.118-.118-.234-.181-.348-.018-.032-.038-.062-.056-.093l-.035-.059c-.035-.057-.068-.116-.1-.172q-.1-.155-.21-.3c-.069-.093-.141-.184-.216-.272l-.006-.008-.005-.007c-.079-.094-.161-.185-.246-.273s-.176-.176-.268-.26c-.039-.035-.081-.068-.121-.1l-.06-.05c-.039-.032-.075-.066-.115-.1q-.161-.128-.333-.242c-.1-.065-.2-.126-.3-.185l-1.47-.85a5.492,5.492,0,0,1,.745.523l.06.051a5.574,5.574,0,0,1,.641.641l.007.009a5.844,5.844,0,0,1,.529.746c.012.02.025.04.036.06a6.188,6.188,0,0,1,.412.842l.013.034a6.615,6.615,0,0,1,.279.9c.009.038.015.077.023.116a7.02,7.02,0,0,1,.117.779c.009.086.02.171.026.259.015.231.009.469,0,.706,0,.115,0,.229-.006.345a8.111,8.111,0,0,1-.151,1.074,8.451,8.451,0,0,1-.241.877c-.028.087-.059.174-.089.26q-.082.227-.177.448c-.042.1-.083.2-.128.291s-.082.168-.125.251c-.062.121-.126.241-.193.359-.034.059-.068.118-.1.177-.1.162-.2.322-.308.476l-.021.03c-.116.165-.239.323-.365.477-.03.037-.06.073-.091.109-.127.151-.257.3-.394.439l-.025.024c-.132.135-.269.264-.408.388l-.092.081c-.144.125-.292.246-.444.36-.029.022-.06.043-.09.065q-.2.146-.407.277l-.107.069q-.244.15-.5.281c-.042.022-.084.04-.127.061-.129.064-.26.124-.393.179-.076.032-.153.061-.23.09-.1.039-.207.076-.311.109-.121.039-.243.074-.365.106-.089.024-.178.048-.269.067-.154.034-.308.059-.464.081-.073.01-.146.025-.22.033a6.1,6.1,0,0,1-.69.038c-.193,0-.388-.012-.582-.031a5.584,5.584,0,0,1-1.7-.447,5.312,5.312,0,0,1-.506-.258h0l1.47.849a5.507,5.507,0,0,0,2.21.705c.194.02.388.03.582.031a6.134,6.134,0,0,0,.689-.039c.074-.008.147-.022.221-.033.155-.023.309-.048.462-.081.032-.007.065-.01.1-.017.059-.014.116-.035.175-.051.12-.032.241-.066.36-.1.042-.014.085-.023.127-.037.063-.022.125-.05.188-.073s.152-.057.227-.089c.036-.015.072-.027.108-.043.1-.043.192-.091.288-.138.041-.02.083-.038.124-.059l.038-.018q.2-.107.4-.226l.059-.038.1-.067c.069-.044.138-.086.206-.132s.135-.1.2-.146c.03-.022.06-.043.09-.065s.034-.024.051-.037q.164-.125.323-.26c.024-.02.046-.042.07-.062s.061-.054.091-.081c.049-.044.1-.086.147-.131.089-.083.176-.17.262-.257l.024-.024.01-.01c.1-.1.193-.2.286-.31.034-.039.066-.08.1-.12l.089-.107c.029-.036.06-.071.089-.108q.141-.179.273-.366l0-.006.017-.026c.086-.123.169-.247.249-.375.021-.034.04-.07.061-.1.035-.059.07-.119.1-.179S472.533,267.446,472.566,267.384Z" transform="translate(-423.421 -216.914)" fill="url(#linear-gradient-7)"/>
  <path id="Trazado_541" data-name="Trazado 541" d="M506.169,260.084c3.557.369,5.775,3.855,4.938,7.8-.784,3.723-4.015,6.524-7.372,6.506q-.29,0-.581-.031c-3.566-.36-5.775-3.855-4.939-7.792.785-3.735,4.023-6.531,7.384-6.513Q505.883,260.056,506.169,260.084Zm-21.341-2.148c-3.356-.018-6.586,2.776-7.371,6.506-.837,3.938,1.373,7.432,4.939,7.792.193.02.387.03.581.031,3.356.018,6.588-2.783,7.372-6.506.837-3.938-1.381-7.432-4.939-7.792C485.216,257.947,485.021,257.937,484.828,257.936Zm-20.759-2.125c-3.356-.018-6.586,2.776-7.37,6.506-.837,3.938,1.373,7.432,4.939,7.792.194.02.388.03.582.031,3.356.018,6.586-2.776,7.371-6.506.837-3.938-1.381-7.432-4.939-7.792C464.457,255.822,464.263,255.812,464.069,255.811Z" transform="translate(-420.604 -216.318)" fill="url(#linear-gradient-8)"/>
  <g id="Grupo_175" data-name="Grupo 175" transform="translate(35.918 39.493)" opacity="0.7" style="mix-blend-mode: overlay;isolation: isolate">
    <path id="Trazado_542" data-name="Trazado 542" d="M464.651,255.842c-.194-.02-.388-.03-.582-.031-3.356-.018-6.587,2.776-7.371,6.506-.837,3.937,1.373,7.431,4.939,7.792.194.02.388.03.582.031,3.356.018,6.586-2.776,7.371-6.506C470.427,259.7,468.209,256.2,464.651,255.842Zm-2.43,14.011q-.276,0-.553-.03a5.27,5.27,0,0,1-1.808-.513c-2.356-1.165-3.514-3.951-2.88-6.934.744-3.537,3.857-6.295,7.088-6.278.183,0,.369.011.554.031a5.22,5.22,0,0,1,1.8.512c2.359,1.166,3.519,3.953,2.887,6.935C468.565,267.112,465.451,269.87,462.221,269.853Z" transform="translate(-456.522 -255.811)" fill="url(#linear-gradient-9)"/>
    <path id="Trazado_543" data-name="Trazado 543" d="M502.218,259.688c-.194-.02-.388-.03-.582-.031-3.356-.018-6.586,2.776-7.371,6.506-.837,3.938,1.373,7.432,4.939,7.792.193.02.387.03.581.031,3.356.018,6.588-2.783,7.372-6.506C507.994,263.543,505.776,260.049,502.218,259.688Zm-2.431,14.01c-.185,0-.369-.011-.553-.03a5.241,5.241,0,0,1-1.807-.513c-2.357-1.165-3.514-3.951-2.881-6.934.744-3.538,3.857-6.3,7.088-6.279.183,0,.368.011.553.03a5.234,5.234,0,0,1,1.8.513c2.359,1.166,3.519,3.953,2.885,6.934C506.131,270.958,503.017,273.716,499.787,273.7Z" transform="translate(-473.33 -257.532)" fill="url(#linear-gradient-10)"/>
    <path id="Trazado_544" data-name="Trazado 544" d="M544.724,271.32c.838-3.945-1.381-7.431-4.938-7.8q-.285-.029-.57-.03c-3.361-.018-6.6,2.778-7.384,6.513-.837,3.937,1.373,7.432,4.939,7.792q.291.03.581.031C540.708,277.844,543.94,275.043,544.724,271.32Zm-7.37,6.219a5.437,5.437,0,0,1-.553-.03,5.242,5.242,0,0,1-1.806-.512c-2.357-1.165-3.514-3.952-2.881-6.934.745-3.542,3.864-6.3,7.1-6.285.181,0,.362.011.544.029a5.271,5.271,0,0,1,1.795.513c2.362,1.167,3.523,3.956,2.889,6.942C543.7,274.8,540.584,277.556,537.354,277.539Z" transform="translate(-490.139 -259.247)" fill="url(#linear-gradient-11)"/>
  </g>
</svg>
