<svg xmlns="http://www.w3.org/2000/svg" xmlns:xlink="http://www.w3.org/1999/xlink" width="150" height="150" viewBox="0 0 150 150">
  <defs>
    <clipPath id="clip-path">
      <circle id="Elipse_5006" data-name="Elipse 5006" cx="75" cy="75" r="75" transform="translate(303 2322)" fill="#ef3c79"/>
    </clipPath>
  </defs>
  <g id="Enmascarar_grupo_98" data-name="Enmascarar grupo 98" transform="translate(-303 -2322)" clip-path="url(#clip-path)">
    <g id="svg1" transform="translate(305.324 2324.406)">
      <rect id="Rectángulo_292768" data-name="Rectángulo 292768" width="149.99" height="149.99" transform="translate(-2.318 -2.406)" fill="#e73d79"/>
      <path id="Trazado_602497" data-name="Trazado 602497" d="M18.1,103.156l40.16,44.438h89.41V77.061L129.648,56.234l-15.569,2.629L94.571,41.082S83.949,36.028,75.063,38.87,57.02,51.452,57.02,51.452l12.3,14.9L44.254,78,29.6,69.359Z" fill="#a52e60"/>
      <g id="Grupo_877931" data-name="Grupo 877931">
        <g id="Grupo_877930" data-name="Grupo 877930">
          <path id="Trazado_602498" data-name="Trazado 602498" d="M78.468,37.92s27.385-12.8,40.471,19.43c10.923-1.135,10.709-1.116,10.709-1.116L115.02,89.8,89.973,60.367l10.05-1.086,3.308-.31S100.236,41.179,78.468,37.92Z" fill="#fff"/>
          <path id="Trazado_602499" data-name="Trazado 602499" d="M69.32,116.814s-25.59,14.658-40.907-15.608c-10.535,1.989-10.321,1.95-10.321,1.95l11.5-33.8,26.725,26.57L46.64,97.8l-3.191.563S47.9,115.408,69.32,116.814Z" fill="#fff"/>
        </g>
        <path id="Trazado_602500" data-name="Trazado 602500" d="M72.056,33.671c-.146-.146-.291-.291-.446-.427-.049-.049-.107-.087-.155-.136-.107-.087-.2-.184-.31-.272-.058-.049-.126-.1-.194-.146a3.445,3.445,0,0,0-.3-.223c-.068-.049-.136-.1-.213-.146-.1-.068-.194-.136-.3-.2-.078-.049-.146-.1-.223-.136-.1-.058-.2-.126-.31-.184-.078-.039-.155-.087-.223-.126-.107-.058-.213-.116-.32-.165l-.233-.116c-.116-.058-.223-.107-.34-.155-.078-.029-.146-.068-.223-.1-.126-.058-.262-.107-.4-.155-.058-.019-.116-.049-.184-.068-.194-.068-.388-.136-.582-.194a.627.627,0,0,1-.126-.039c-.155-.049-.31-.087-.466-.126-.078-.019-.146-.029-.223-.049-.126-.029-.252-.058-.378-.078a2.265,2.265,0,0,0-.252-.039l-.359-.058-.262-.029c-.116-.01-.233-.029-.349-.039-.087-.01-.175-.01-.272-.019-.116-.01-.233-.01-.349-.019-.087,0-.175-.01-.262-.01h-.6c-.194.01-.388.019-.582.039A11.671,11.671,0,0,0,55.06,49.735l.378.407a.422.422,0,0,1,.058.068c.126.126.252.252.378.369.029.019.049.049.078.068L56.36,51a.211.211,0,0,1,.049.039c.136.107.272.213.417.32.01.01.029.019.039.029l.116.087c.107.078.213.155.32.223l.087.058c.146.1.3.184.456.281a.542.542,0,0,1,.078.049c.155.087.32.175.485.262.01,0,.01.01.019.01.165.078.32.155.485.233.019.01.049.019.068.029l.495.2a.668.668,0,0,1,.1.039c.165.068.33.126.5.184a.18.18,0,0,0,.068.019c.175.058.34.107.514.155.01,0,.019.01.029.01.175.049.349.087.534.126.029.01.058.01.087.019.175.039.349.068.524.1.029.01.058.01.1.019.175.029.359.058.543.078h.039c.175.019.359.029.534.049h.068c.175.01.359.01.534.019h.5c.078,0,.155-.01.243-.01.049,0,.087-.01.136-.01a2.378,2.378,0,0,1,.262-.019c.039,0,.078-.01.116-.01.126-.01.252-.029.378-.049a11.722,11.722,0,0,0,6.771-19.867Z" fill="#fff"/>
        <path id="Trazado_602501" data-name="Trazado 602501" d="M83.241,61.366c-4.229-.776-8.4-1.7-12.63-2.5-2.338,3.444-11.369,3.512-13.639,0Q50.6,60.1,44.273,61.414q-.015,8.294-.01,16.588H83.279C83.27,72.463,83.27,66.915,83.241,61.366Z" fill="#fff"/>
        <path id="Trazado_602502" data-name="Trazado 602502" d="M102.865,79.933c-.146-.146-.291-.291-.446-.427-.049-.049-.107-.087-.155-.136-.107-.087-.2-.184-.31-.272-.058-.049-.126-.1-.194-.146a3.445,3.445,0,0,0-.3-.223c-.068-.049-.136-.1-.213-.146-.1-.068-.194-.136-.3-.2-.078-.049-.146-.1-.223-.136-.1-.058-.2-.126-.31-.184-.078-.039-.155-.087-.223-.126-.107-.058-.213-.116-.32-.165l-.233-.116c-.116-.058-.223-.107-.34-.155-.078-.029-.146-.068-.223-.1-.126-.058-.262-.107-.388-.155-.058-.019-.116-.049-.184-.068-.194-.068-.388-.136-.582-.194a.627.627,0,0,1-.126-.039c-.155-.049-.31-.087-.466-.126-.078-.019-.146-.029-.223-.049-.126-.029-.252-.058-.378-.078a2.268,2.268,0,0,0-.252-.039l-.359-.058-.262-.029c-.116-.01-.233-.029-.349-.039-.087-.01-.175-.01-.272-.019-.116-.01-.233-.01-.349-.019-.087,0-.175-.01-.262-.01h-.6c-.194.01-.388.019-.582.039A11.708,11.708,0,0,0,84.56,94.241,11.077,11.077,0,0,0,85.879,96l.378.407a.422.422,0,0,1,.058.068c.126.126.252.243.378.369.029.019.049.049.078.068l.407.349a.212.212,0,0,1,.049.039c.136.107.272.213.417.32.01.01.029.019.039.029l.116.087c.107.078.213.155.32.223a.538.538,0,0,1,.078.058c.146.1.3.184.456.281a.542.542,0,0,1,.078.049c.155.087.32.175.485.262.01,0,.01.01.019.01.165.078.32.155.485.233.019.01.049.019.068.029l.495.2a.669.669,0,0,1,.1.039c.165.068.33.126.5.184a.18.18,0,0,0,.068.019c.175.058.34.107.514.155.01,0,.019.01.029.01.175.049.349.087.534.126.029.01.058.01.087.019.175.039.349.068.524.1.029.01.058.01.1.019.175.029.359.058.543.078h.039c.175.019.359.029.534.039h.068c.175.01.359.01.534.019h.5c.078,0,.155-.01.243-.01.049,0,.087-.01.136-.01a2.378,2.378,0,0,1,.262-.019c.039,0,.078-.01.116-.01.126-.01.252-.029.378-.049a11.715,11.715,0,0,0,6.771-19.857Z" fill="#fff"/>
        <path id="Trazado_602503" data-name="Trazado 602503" d="M114.05,107.628c-4.229-.776-8.4-1.7-12.63-2.5-2.348,3.444-11.369,3.512-13.639,0q-6.373,1.237-12.7,2.551-.015,8.294-.01,16.588h39.016C114.079,118.725,114.079,113.177,114.05,107.628Z" fill="#fff"/>
      </g>
    </g>
  </g>
</svg>
