<svg xmlns="http://www.w3.org/2000/svg" xmlns:xlink="http://www.w3.org/1999/xlink" width="1258" height="582.785" viewBox="0 0 1258 582.785">
  <defs>
    <linearGradient id="linear-gradient" x1="0.927" y1="0.366" x2="0.029" y2="0.381" gradientUnits="objectBoundingBox">
      <stop offset="0" stop-color="#0d4aad"/>
      <stop offset="1" stop-color="#0b377e"/>
    </linearGradient>
    <filter id="Rectángulo_35618" x="0" y="0" width="1258" height="497" filterUnits="userSpaceOnUse">
      <feOffset dy="3" input="SourceAlpha"/>
      <feGaussianBlur stdDeviation="3" result="blur"/>
      <feFlood flood-opacity="0.161"/>
      <feComposite operator="in" in2="blur"/>
      <feComposite in="SourceGraphic"/>
    </filter>
    <linearGradient id="linear-gradient-2" x1="-0.207" y1="0.555" x2="0.954" y2="0.591" gradientUnits="objectBoundingBox">
      <stop offset="0" stop-color="#00af96"/>
      <stop offset="1" stop-color="#00cbae"/>
    </linearGradient>
  </defs>
  <g id="Grupo_129373" data-name="Grupo 129373" transform="translate(-171 -826)">
    <g transform="matrix(1, 0, 0, 1, 171, 826)" filter="url(#Rectángulo_35618)">
      <rect id="Rectángulo_35618-2" data-name="Rectángulo 35618" width="1240" height="479" transform="translate(9 6)" fill="url(#linear-gradient)"/>
    </g>
    <rect id="Rectángulo_35619" data-name="Rectángulo 35619" width="284.327" height="478.845" transform="translate(1135.673 832)" fill="url(#linear-gradient-2)"/>
    <g id="Grupo_877683" data-name="Grupo 877683" transform="translate(84.633 954.768) rotate(-90)">
      <path id="Trazado_602306" data-name="Trazado 602306" d="M91.226,130.027l-6.064-6.064-8.843,8.843-8.843-8.843-6.064,6.064,8.843,8.843-8.843,8.843,6.064,6.064,8.843-8.843,8.843,8.843,6.064-6.064-8.843-8.843Z" fill="#fdfdfd"/>
      <path id="Trazado_602307" data-name="Trazado 602307" d="M91.226,185.284l-6.064-6.064-8.843,8.843-8.843-8.843-6.064,6.064,8.843,8.843-8.843,8.843,6.064,6.064,8.843-8.843,8.843,8.843,6.064-6.064-8.843-8.843Z" fill="#fdfdfd"/>
      <path id="Trazado_602308" data-name="Trazado 602308" d="M91.226,240.54l-6.064-6.064-8.843,8.843-8.843-8.843-6.064,6.064,8.843,8.843-8.843,8.843,6.064,6.064,8.843-8.843,8.843,8.843,6.064-6.064-8.843-8.843Z" fill="#fdfdfd"/>
    </g>
    <g id="Grupo_877692" data-name="Grupo 877692" transform="translate(840.79 829.466)">
      <path id="Trazado_602310" data-name="Trazado 602310" d="M106.912,321.471-105.159,533.542a18.527,18.527,0,0,1-26.2,0h0a18.529,18.529,0,0,1,0-26.2L80.708,295.267a18.529,18.529,0,0,1,26.2,0h0A18.529,18.529,0,0,1,106.912,321.471Z" fill="none" stroke="#fff" stroke-miterlimit="10" stroke-width="2"/>
      <path id="Trazado_602311" data-name="Trazado 602311" d="M94,412.306-67.87,574.177a14.143,14.143,0,0,1-20,0h0a14.142,14.142,0,0,1,0-20L74,392.3a14.144,14.144,0,0,1,20,0h0A14.144,14.144,0,0,1,94,412.306Z" fill="none" stroke="#fff" stroke-miterlimit="10" stroke-width="2"/>
    </g>
  </g>
</svg>
